# Blender 5.2.1 LTS
# www.blender.org
mtllib Screen_Glass.mtl
o GLASS_screen
v -0.729593 0.491338 -0.454443
v 0.729593 0.491338 -0.454443
v -0.729593 1.380644 -0.267496
v 0.729593 1.380644 -0.267496
v -0.705890 0.487595 -0.455230
v 0.705890 0.487595 -0.455230
v -0.705890 1.384388 -0.266709
v 0.705890 1.384388 -0.266709
v -0.734232 1.358526 -0.272146
v -0.734232 0.513456 -0.449793
v 0.734232 1.358526 -0.272146
v 0.734232 0.513456 -0.449793
v -0.705890 0.513456 -0.449793
v 0.705890 0.513456 -0.449793
v -0.705890 1.358526 -0.272146
v 0.705890 1.358526 -0.272146
v -0.423534 0.487595 -0.455230
v -0.141178 0.487595 -0.455230
v 0.141178 0.487595 -0.455230
v 0.423534 0.487595 -0.455230
v -0.423534 1.384388 -0.266709
v -0.141178 1.384388 -0.266709
v 0.141178 1.384388 -0.266709
v 0.423534 1.384388 -0.266709
v -0.423534 0.513456 -0.449793
v -0.141178 0.513456 -0.449793
v 0.141178 0.513456 -0.449793
v 0.423534 0.513456 -0.449793
v -0.423534 1.358526 -0.272146
v -0.141178 1.358526 -0.272146
v 0.141178 1.358526 -0.272146
v 0.423534 1.358526 -0.272146
vn -0.0000 0.2057 -0.9786
vt 0.024889 0.619594
vt 0.024889 0.636986
vt 0.008949 0.634468
vt 0.024889 0.051292
vt 0.005830 0.051292
vt 0.008949 0.036417
vt 0.005830 0.619594
vt 0.990240 0.036417
vt 0.993359 0.051292
vt 0.974300 0.051292
vt 0.214771 0.033900
vt 0.214771 0.051292
vt 0.024889 0.033900
vt 0.993359 0.619594
vt 0.974300 0.619594
vt 0.214771 0.619594
vt 0.990240 0.634468
vt 0.974300 0.636986
vt 0.214771 0.636986
vt 0.974300 0.033900
vt 0.784418 0.636986
vt 0.784418 0.619594
vt 0.594536 0.636986
vt 0.594536 0.619594
vt 0.404653 0.636986
vt 0.404653 0.619594
vt 0.784418 0.051292
vt 0.594536 0.051292
vt 0.404653 0.051292
vt 0.784418 0.033900
vt 0.594536 0.033900
vt 0.404653 0.033900
s 0
usemtl Material
f 16/1/1 8/2/1 4/3/1
f 14/4/1 12/5/1 2/6/1
f 14/4/1 16/1/1 11/7/1 12/5/1
f 1/8/1 10/9/1 13/10/1
f 20/11/1 28/12/1 14/4/1 6/13/1
f 10/9/1 9/14/1 15/15/1 13/10/1
f 28/12/1 32/16/1 16/1/1 14/4/1
f 3/17/1 7/18/1 15/15/1
f 32/16/1 24/19/1 8/2/1 16/1/1
f 11/7/1 16/1/1 4/3/1
f 9/14/1 3/17/1 15/15/1
f 5/20/1 1/8/1 13/10/1
f 6/13/1 14/4/1 2/6/1
f 15/15/1 7/18/1 21/21/1 29/22/1
f 29/22/1 21/21/1 22/23/1 30/24/1
f 30/24/1 22/23/1 23/25/1 31/26/1
f 31/26/1 23/25/1 24/19/1 32/16/1
f 13/10/1 15/15/1 29/22/1 25/27/1
f 25/27/1 29/22/1 30/24/1 26/28/1
f 26/28/1 30/24/1 31/26/1 27/29/1
f 27/29/1 31/26/1 32/16/1 28/12/1
f 5/20/1 13/10/1 25/27/1 17/30/1
f 17/30/1 25/27/1 26/28/1 18/31/1
f 18/31/1 26/28/1 27/29/1 19/32/1
f 19/32/1 27/29/1 28/12/1 20/11/1
