# Blender 5.2.1 LTS
# www.blender.org
mtllib Arcade Machine WIP.mtl
o Machine_Main
v 0.898707 2.089221 -0.995543
v 0.898707 -2.000000 -0.800000
v 0.898707 1.889221 1.004457
v 0.898707 -2.000000 1.000000
v -0.898707 2.089221 -0.995543
v -0.898707 -2.000000 -0.800000
v -0.898707 1.889221 1.004457
v -0.898707 -2.000000 1.000000
v 0.898707 -0.116305 -1.000000
v -0.898707 -0.116305 1.000000
v 0.898707 -0.116305 1.000000
v -0.898707 -0.116305 -1.000000
v -0.898707 0.383695 1.000000
v 0.898707 0.283695 -1.000000
v 0.898707 0.383695 1.000000
v -0.898707 0.283695 -1.000000
v 0.898707 -0.286295 -0.800000
v 0.898707 -0.306088 1.000000
v -0.898707 -0.286295 -0.800000
v -0.898707 -0.306088 1.000000
v -0.898707 0.667905 1.000000
v 0.898707 0.383695 -0.477071
v 0.898707 0.667905 1.000000
v -0.898707 0.383695 -0.477071
v -0.898707 1.388287 1.000000
v 0.898707 1.710217 -0.900000
v 0.898707 1.388287 1.000000
v -0.898707 1.710217 -0.900000
v -0.898707 -2.000000 -0.345545
v 0.898707 2.089221 -0.495543
v -0.898707 2.089221 -0.495543
v 0.898707 -2.000000 -0.345545
v 0.898707 -0.116305 -0.495050
v -0.898707 -0.116305 -0.495050
v 0.898707 0.283695 -0.300000
v -0.898707 0.283695 -0.300000
v -0.898707 -0.311955 -0.345545
v 0.898707 -0.311955 -0.345545
v 0.898707 0.530204 -0.046535
v -0.898707 0.530204 -0.046535
v 0.898707 1.687297 -0.420297
v -0.898707 1.687297 -0.420297
v 0.898707 1.488287 -0.244868
v 0.898707 1.273908 1.000000
v -0.898707 1.488287 -0.244868
v -0.898707 1.273908 1.000000
v -0.898707 1.503135 -0.105440
v 0.898707 1.503135 -0.105440
v 0.808837 1.889221 1.004457
v -0.808837 1.889221 1.004457
v -0.808837 -2.000000 1.000000
v 0.808837 -2.000000 1.000000
v 0.808837 -0.116305 1.000000
v -0.808837 -0.116305 1.000000
v 0.808837 0.383695 1.000000
v -0.808837 0.383695 1.000000
v 0.808837 -0.306088 1.000000
v -0.808837 -0.306088 1.000000
v -0.758879 0.465427 -0.459890
v 0.758879 0.465427 -0.459890
v 0.808837 0.667905 1.000000
v -0.808837 0.667905 1.000000
v 0.808837 1.388287 1.000000
v -0.808837 1.388287 1.000000
v 0.808837 -2.000000 -0.345545
v -0.808837 -2.000000 -0.345545
v -0.808837 2.089221 -0.495543
v 0.808837 2.089221 -0.495543
v 0.808837 1.273908 1.000000
v -0.808837 1.273908 1.000000
v -0.758879 1.406556 -0.262049
v 0.758879 1.406556 -0.262049
v -0.808837 1.967965 0.952335
v -0.898707 1.967965 0.952335
v 0.898707 2.192443 -0.493824
v 0.898707 1.967965 0.952335
v -0.898707 2.192443 -0.493824
v -0.898707 2.176776 -0.995543
v 0.808837 2.176776 -0.995543
v 0.898707 2.176776 -0.995543
v 0.808837 2.192443 -0.493824
v 0.808837 1.967965 0.952335
v -0.808837 2.176776 -0.995543
v -0.808837 2.192443 -0.493824
v -0.808837 -2.000000 -0.838565
v -0.898707 -2.000000 -0.838565
v 0.898707 -2.000000 -0.838565
v 0.808837 2.071500 -1.033076
v 0.898707 2.071500 -1.033076
v 0.898707 0.430612 -0.542493
v -0.898707 0.430612 -0.542493
v 0.808837 0.430612 -0.542493
v -0.898707 2.071500 -1.033076
v 0.808837 -2.000000 -0.838565
v -0.808837 2.071500 -1.033076
v -0.808837 0.430612 -0.542493
v 0.808837 -2.000000 -0.800000
v -0.808837 -2.000000 -0.800000
v -0.808837 -0.286295 -0.800000
v 0.808837 -0.286295 -0.800000
v -0.808837 0.383695 -0.477071
v 0.808837 0.383695 -0.477071
v -0.808837 1.488287 -0.244868
v 0.808837 1.488287 -0.244868
v -0.734232 0.454257 -0.462238
v 0.734232 0.454257 -0.462238
v -0.734232 1.417725 -0.259701
v 0.734232 1.417725 -0.259701
v -0.770564 1.384388 -0.266709
v -0.770564 0.487595 -0.455230
v 0.770564 1.384387 -0.266709
v 0.770564 0.487595 -0.455230
v -0.724615 0.495336 -0.453821
v 0.724615 0.495336 -0.453821
v -0.724615 1.376612 -0.268123
v 0.724615 1.376612 -0.268123
v -0.705890 0.487595 -0.455230
v 0.705890 0.487595 -0.455230
v -0.705890 1.384388 -0.266709
v 0.705890 1.384388 -0.266709
v -0.734232 1.358526 -0.272146
v -0.734232 0.513456 -0.449793
v 0.734232 1.358526 -0.272146
v 0.734232 0.513456 -0.449793
v 0.734232 1.365499 -0.302388
v -0.734232 1.365499 -0.302388
v -0.705890 1.391361 -0.296951
v -0.724615 1.383566 -0.298368
v -0.705890 0.494568 -0.485472
v 0.734232 0.520430 -0.480035
v -0.724615 0.502290 -0.484066
v -0.734232 0.520430 -0.480035
v 0.724615 1.383566 -0.298368
v 0.705890 1.391361 -0.296951
v 0.724615 0.502290 -0.484066
v 0.705890 0.494568 -0.485472
v 0.770564 1.391361 -0.296951
v -0.770564 1.391361 -0.296951
v -0.734232 1.424699 -0.289943
v -0.758879 1.413529 -0.292291
v 0.705918 0.408974 -0.072320
v 0.724643 0.416786 -0.070900
v 0.705918 1.305768 0.116201
v 0.724643 1.298064 0.114798
v -0.734204 0.434836 -0.066883
v -0.724587 0.416787 -0.070900
v 0.734260 0.434836 -0.066883
v -0.705862 0.408974 -0.072319
v -0.734232 0.461230 -0.492480
v -0.724587 1.298064 0.114798
v -0.705862 1.305768 0.116201
v 0.770564 0.494568 -0.485472
v -0.734204 1.279906 0.110765
v 0.734260 1.279906 0.110765
v -0.758879 0.472400 -0.490132
v -0.770564 0.494568 -0.485472
v 0.758879 1.413529 -0.292291
v 0.734232 1.424699 -0.289943
v 0.758879 0.472400 -0.490132
v 0.734232 0.461230 -0.492480
v 0.898707 1.646692 -0.907936
v 0.898707 1.685170 -0.934074
v 0.898707 1.660531 -0.922992
v -0.898707 1.685170 -0.934074
v -0.898707 1.646692 -0.907936
v -0.898707 1.660531 -0.922992
v 0.808837 1.685170 -0.934074
v 0.808837 1.646692 -0.907936
v 0.808837 1.660531 -0.922992
v -0.808837 1.646692 -0.907936
v -0.808837 1.685170 -0.934074
v -0.808837 1.660531 -0.922992
v 0.898707 1.396511 -0.319067
v 0.898707 1.446816 -0.332252
v 0.898707 1.428778 -0.318873
v -0.898707 1.446816 -0.332252
v -0.898707 1.396511 -0.319067
v -0.898707 1.428778 -0.318873
v 0.808837 1.446816 -0.332252
v 0.808837 1.396511 -0.319067
v 0.808837 1.428778 -0.318873
v -0.808837 1.396511 -0.319067
v -0.808837 1.446816 -0.332252
v -0.808837 1.428778 -0.318873
v 0.898707 0.285514 -1.029138
v 0.898707 0.340811 -1.003283
v 0.898707 0.322589 -1.021251
v -0.898707 0.340811 -1.003283
v -0.898707 0.285514 -1.029138
v -0.898707 0.322589 -1.021251
v 0.808837 0.340811 -1.003283
v 0.808837 0.285514 -1.029138
v 0.808837 0.322589 -1.021251
v -0.808837 0.285514 -1.029138
v -0.808837 0.340811 -1.003283
v -0.808837 0.322589 -1.021251
v 0.898707 -0.161034 -1.021855
v 0.898707 -0.114366 -1.035156
v 0.898707 -0.141064 -1.031456
v -0.898707 -0.114366 -1.035156
v -0.898707 -0.161034 -1.021855
v -0.898707 -0.141064 -1.031456
v 0.808837 -0.114366 -1.035156
v 0.808837 -0.161034 -1.021855
v 0.808837 -0.141064 -1.031456
v -0.808837 -0.161034 -1.021855
v -0.808837 -0.114366 -1.035156
v -0.808837 -0.141064 -1.031456
v 0.898707 -0.356444 -0.835700
v 0.898707 -0.300218 -0.854390
v 0.898707 -0.323145 -0.841145
v -0.898707 -0.300218 -0.854390
v -0.898707 -0.356444 -0.835700
v -0.898707 -0.323145 -0.841145
v 0.808837 -0.300218 -0.854390
v 0.808837 -0.356444 -0.835700
v 0.808837 -0.323145 -0.841145
v -0.808837 -0.356444 -0.835700
v -0.808837 -0.300218 -0.854390
v -0.808837 -0.323145 -0.841145
v -0.808837 0.285856 -0.988697
v -0.808837 0.260986 -1.000000
v -0.808837 0.277677 -0.996689
v 0.808837 0.260986 -1.000000
v 0.808837 0.285856 -0.988697
v 0.808837 0.277677 -0.996689
v -0.808837 -0.097063 -1.000000
v -0.808837 -0.123831 -0.991145
v -0.808837 -0.112874 -0.997407
v 0.808837 -0.123831 -0.991145
v 0.808837 -0.097063 -1.000000
v 0.808837 -0.112874 -0.997407
v 0.808837 2.176776 -1.015344
v 0.808837 2.128027 -1.044026
v 0.808837 2.158219 -1.038243
v 0.898707 2.128027 -1.044026
v 0.898707 2.176776 -1.015344
v 0.898707 2.158219 -1.038243
v -0.898707 2.176776 -1.015344
v -0.898707 2.128027 -1.044026
v -0.898707 2.158219 -1.038243
v -0.808837 2.128027 -1.044026
v -0.808837 2.176776 -1.015344
v -0.808837 2.158219 -1.038243
v -0.808837 1.725661 -0.903893
v -0.808837 1.707329 -0.891474
v -0.808837 1.713894 -0.898643
v 0.808837 1.707329 -0.891474
v 0.808837 1.725661 -0.903893
v 0.808837 1.713894 -0.898643
v -0.808837 2.089221 -0.977158
v -0.808837 2.056388 -0.987266
v -0.808837 2.079604 -0.987734
v 0.808837 2.056388 -0.987266
v 0.808837 2.089221 -0.977158
v 0.808837 2.079604 -0.987734
vn -1.0000 -0.0000 -0.0000
vn -0.0000 -0.0089 1.0000
vn -0.0000 -1.0000 -0.0000
vn 1.0000 -0.0000 -0.0000
vn -0.0000 -0.0000 1.0000
vn -0.0000 0.9912 0.1322
vn -0.0000 0.9882 0.1534
vn -0.0000 0.9995 -0.0312
vn -0.0000 0.5520 0.8339
vn -0.0000 -0.0000 -1.0000
vn -0.0000 0.2057 -0.9786
vn -0.0000 0.9744 0.2247
vn -0.3889 -0.8978 -0.2067
vn -0.8887 -0.4468 -0.1030
vn 0.8875 -0.4491 -0.1034
vn -0.3866 0.8987 0.2069
vn 0.4202 0.8842 0.2039
vn 1.0000 -0.0000 -0.0001
vn 0.8887 -0.4468 -0.1030
vn -0.3872 -0.9032 -0.1853
vn 0.8879 -0.4506 -0.0925
vn 0.0024 0.2002 -0.9798
vn -0.4202 -0.8842 -0.2039
vn 0.8880 0.4481 0.1032
vn -0.3888 0.9025 0.1852
vn 0.0052 0.2083 -0.9781
vn -0.0024 0.2001 -0.9798
vn 0.0024 0.2001 -0.9798
vn 0.4202 -0.8842 -0.2039
vn 0.3889 -0.8978 -0.2067
vn 0.8887 0.4468 0.1030
vn 0.0051 0.2082 -0.9781
vn 0.3873 -0.9031 -0.1854
vn -0.0000 -0.9744 -0.2247
vn -0.4202 0.8842 0.2039
vn -0.0000 0.9796 0.2011
vn 0.3888 0.9025 0.1852
vn -0.0051 0.2082 -0.9781
vn -1.0000 -0.0000 0.0001
vn -0.0024 0.2002 -0.9798
vn -0.8875 0.4513 0.0927
vn -0.8879 -0.4506 -0.0924
vn -0.0000 -0.9796 -0.2011
vn 0.8875 0.4514 0.0926
vn -0.0052 0.2083 -0.9781
vn -0.8875 -0.4491 -0.1034
vn -0.8880 0.4481 0.1032
vn -0.8887 0.4468 0.1030
vn 0.3866 0.8987 0.2069
vn -0.0000 -0.4102 -0.9120
vn -0.0000 -0.7362 -0.6767
vn -0.0000 -0.2482 -0.9687
vn -0.0000 -0.5957 -0.8032
vn -0.0000 0.0060 -1.0000
vn -0.0000 0.2254 -0.9743
vn -0.0000 -0.9447 -0.3280
vn -0.0000 0.7021 -0.7121
vn -0.0000 0.2081 -0.9781
vn -0.0000 0.9815 -0.1913
vn -0.0000 -0.1373 -0.9905
vn -0.0000 -0.4333 -0.9013
vn -0.0000 0.0150 -0.9999
vn -0.0000 -0.5002 -0.8659
vn -0.0000 -0.1614 -0.9869
vn -0.0000 0.0017 -1.0000
vn -0.0000 -0.7691 -0.6392
vn -0.0000 0.6989 -0.7152
vn -0.0000 0.1946 -0.9809
vn -0.0000 0.9822 -0.1878
vn -0.0000 -0.1619 -0.9868
vn -0.0000 -0.4961 -0.8683
vn -0.0000 -0.7620 -0.6476
vn -0.0000 0.7769 -0.6296
vn -0.0000 0.1881 -0.9821
vn -0.0000 1.0000 -0.0000
vn -0.0000 -0.1902 -0.9817
vn -0.0000 -0.4075 -0.9132
vn -0.0000 -0.7375 -0.6754
vn -0.0000 -0.9471 -0.3208
vn -0.0000 0.7399 -0.6727
vn -0.0000 -0.0201 -0.9998
vn -0.0000 -0.2444 -0.9697
vt 0.569348 0.980248
vt 0.707334 0.961850
vt 0.702539 0.969093
vt 0.569506 0.989743
vt 0.809609 0.464632
vt 0.809609 0.513494
vt 0.800843 0.513494
vt 0.800843 0.464632
vt 0.606439 0.463896
vt 0.597291 0.512764
vt 0.536499 0.512764
vt 0.548115 0.466683
vt 0.929234 0.035820
vt 0.935070 0.035820
vt 0.935070 0.123187
vt 0.929234 0.123187
vt 0.181686 0.463896
vt 0.190835 0.512764
vt 0.008459 0.488447
vt 0.009001 0.427542
vt 0.172597 0.220820
vt 0.190775 0.244607
vt 0.009001 0.244607
vt 0.009001 0.221533
vt 0.615528 0.220820
vt 0.597351 0.244607
vt 0.535957 0.244607
vt 0.560273 0.223939
vt 0.809609 0.299361
vt 0.809609 0.317872
vt 0.800843 0.317872
vt 0.800843 0.299361
vt 0.167060 0.293241
vt 0.009001 0.305399
vt 0.621065 0.293241
vt 0.535957 0.293241
vt 0.809609 0.366643
vt 0.800843 0.366643
vt 0.809609 0.134135
vt 0.800843 0.134135
vt 0.615528 0.015581
vt 0.560273 0.015581
vt 0.172597 0.015581
vt 0.009001 0.015581
vt 0.136242 0.323213
vt 0.009001 0.339955
vt 0.651883 0.323213
vt 0.599536 0.305399
vt 0.809609 0.394365
vt 0.800843 0.394365
vt 0.143404 0.441505
vt 0.009001 0.413635
vt 0.644721 0.441505
vt 0.627769 0.439700
vt 0.809609 0.453476
vt 0.800843 0.453476
vt 0.779124 0.413635
vt 0.779124 0.427542
vt 0.160357 0.439700
vt 0.240010 0.466683
vt 0.779124 0.305399
vt 0.779124 0.339955
vt 0.252168 0.293241
vt 0.188589 0.305399
vt 0.227852 0.015581
vt 0.227852 0.223939
vt 0.779124 0.015581
vt 0.779124 0.221533
vt 0.779124 0.244607
vt 0.252168 0.244607
vt 0.251627 0.512764
vt 0.929234 0.006312
vt 0.935070 0.006312
vt 0.779666 0.488447
vt 0.251627 0.523409
vt 0.190626 0.525314
vt 0.976164 0.394365
vt 0.976164 0.453476
vt 0.967398 0.453476
vt 0.967398 0.394365
vt 0.519425 0.986595
vt 0.525044 0.980248
vt 0.523353 0.988302
vt 0.521532 0.988302
vt 0.818363 0.006312
vt 0.824198 0.006312
vt 0.824198 0.035820
vt 0.818363 0.035820
vt 0.976164 0.464632
vt 0.967398 0.464632
vt 0.976164 0.366643
vt 0.967398 0.366643
vt 0.976164 0.134135
vt 0.976164 0.299361
vt 0.967398 0.299361
vt 0.967398 0.134135
vt 0.976164 0.317872
vt 0.967398 0.317872
vt 0.824198 0.123187
vt 0.818363 0.123187
vt 0.976164 0.513494
vt 0.967398 0.513494
vt 0.014796 0.498021
vt 0.842511 0.821347
vt 0.666637 0.821347
vt 0.666637 0.658266
vt 0.842511 0.658266
vt 0.666637 0.821160
vt 0.656866 0.821160
vt 0.656866 0.663933
vt 0.666637 0.663933
vt 0.666637 0.875708
vt 0.656866 0.875708
vt 0.852282 0.875708
vt 0.842511 0.875708
vt 0.842511 0.821160
vt 0.852282 0.821160
vt 0.842511 0.663933
vt 0.852282 0.663933
vt 0.597499 0.525314
vt 0.536499 0.523409
vt 0.852282 0.658266
vt 0.656866 0.658266
vt 0.773329 0.498021
vt 0.786459 0.959502
vt 0.933109 0.979055
vt 0.932941 0.989147
vt 0.791555 0.967200
vt 0.929234 0.003808
vt 0.935070 0.003808
vt 0.818363 0.003808
vt 0.824198 0.003808
vt 0.512971 0.005158
vt 0.512971 0.255189
vt 0.276952 0.255189
vt 0.276952 0.005158
vt 0.287837 0.363236
vt 0.284241 0.364866
vt 0.276952 0.352941
vt 0.502086 0.503807
vt 0.505682 0.502177
vt 0.512971 0.514102
vt 0.507387 0.368100
vt 0.505682 0.364866
vt 0.512971 0.352941
vt 0.276952 0.514102
vt 0.282536 0.498943
vt 0.284241 0.502177
vt 0.035163 0.982831
vt 0.375686 0.982831
vt 0.375686 0.989844
vt 0.035163 0.989844
vt 0.334042 0.906608
vt 0.330798 0.906853
vt 0.330798 0.901614
vt 0.334042 0.901369
vt 0.334846 0.711062
vt 0.335814 0.715670
vt 0.329528 0.717120
vt 0.328559 0.712511
vt 0.268703 0.892692
vt 0.269400 0.889559
vt 0.274639 0.890767
vt 0.273943 0.893896
vt 0.319387 0.713554
vt 0.322631 0.713310
vt 0.322631 0.718550
vt 0.319387 0.718793
vt 0.381401 0.983376
vt 0.381401 0.990388
vt 0.300174 0.743164
vt 0.203067 0.875939
vt 0.233841 0.729544
vt 0.081980 0.727775
vt 0.083002 0.722916
vt 0.089631 0.724445
vt 0.088609 0.729304
vt 0.334047 0.972943
vt 0.330803 0.973186
vt 0.202368 0.879085
vt 0.499442 0.364738
vt 0.502950 0.366328
vt 0.498074 0.370581
vt 0.495409 0.369482
vt 0.016874 0.641660
vt 0.010726 0.642246
vt 0.010726 0.634701
vt 0.016874 0.634116
vt 0.300872 0.740025
vt 0.306112 0.741230
vt 0.305413 0.744372
vt 0.319392 0.647221
vt 0.322635 0.646975
vt 0.040657 0.924351
vt 0.047286 0.925880
vt 0.504612 0.497095
vt 0.502950 0.500250
vt 0.498074 0.495986
vt 0.499442 0.493415
vt 0.499442 0.501839
vt 0.495409 0.497095
vt 0.294514 0.497095
vt 0.290481 0.501839
vt 0.286973 0.500250
vt 0.291849 0.495986
vt 0.389340 0.642246
vt 0.383192 0.641660
vt 0.383192 0.634116
vt 0.389340 0.634701
vt 0.086230 0.906853
vt 0.082987 0.906608
vt 0.082987 0.901369
vt 0.086230 0.901614
vt 0.290481 0.364738
vt 0.294514 0.369482
vt 0.039635 0.929210
vt 0.046264 0.930739
vt 0.504612 0.369482
vt 0.499442 0.373162
vt 0.291849 0.370581
vt 0.290481 0.373162
vt 0.285310 0.369482
vt 0.286973 0.366328
vt 0.290481 0.493415
vt 0.285310 0.497095
vt 0.074819 0.713554
vt 0.074819 0.718793
vt 0.086235 0.973186
vt 0.082992 0.972943
vt 0.029448 0.983376
vt 0.029448 0.990388
vt 0.074824 0.647221
vt 0.071575 0.713310
vt 0.071580 0.646975
vt 0.130523 0.890376
vt 0.099749 0.743981
vt 0.166082 0.730361
vt 0.196856 0.876756
vt 0.099051 0.740842
vt 0.165386 0.727235
vt 0.131220 0.893509
vt 0.197555 0.879902
vt 0.234537 0.726418
vt 0.125981 0.894713
vt 0.125284 0.891584
vt 0.094510 0.745189
vt 0.093811 0.742047
vt 0.375004 0.902095
vt 0.375973 0.906704
vt 0.369686 0.908153
vt 0.368717 0.903545
vt 0.071575 0.718550
vt 0.282536 0.368100
vt 0.287837 0.503807
vt 0.507387 0.498943
vt 0.502086 0.363236
vt 0.240975 0.458959
vt 0.242806 0.460642
vt 0.244153 0.463638
vt 0.543972 0.463638
vt 0.545320 0.460642
vt 0.547150 0.458959
vt 0.276952 0.542827
vt 0.263840 0.542827
vt 0.263840 0.539232
vt 0.276952 0.539232
vt 0.263840 0.537213
vt 0.276952 0.537213
vt 0.526083 0.542827
vt 0.512971 0.542827
vt 0.512971 0.539232
vt 0.526083 0.539232
vt 0.512971 0.537213
vt 0.526083 0.537213
vt 0.256190 0.510609
vt 0.276952 0.599193
vt 0.263840 0.599193
vt 0.531935 0.510609
vt 0.526083 0.599193
vt 0.512971 0.599193
vt 0.169378 0.428542
vt 0.169354 0.432465
vt 0.170981 0.434658
vt 0.617144 0.434658
vt 0.618771 0.432465
vt 0.618747 0.428542
vt 0.584369 0.921153
vt 0.585600 0.919493
vt 0.592408 0.924968
vt 0.585582 0.916525
vt 0.915855 0.911331
vt 0.915837 0.914486
vt 0.908601 0.920304
vt 0.917144 0.916249
vt 0.276952 0.508051
vt 0.263840 0.508051
vt 0.263840 0.505419
vt 0.276952 0.505419
vt 0.263840 0.500712
vt 0.276952 0.500712
vt 0.526083 0.508051
vt 0.512971 0.508051
vt 0.512971 0.505419
vt 0.526083 0.505419
vt 0.512971 0.500712
vt 0.526083 0.500712
vt 0.196543 0.311104
vt 0.276952 0.359786
vt 0.263840 0.359786
vt 0.591582 0.311104
vt 0.526083 0.359786
vt 0.512971 0.359786
vt 0.571047 0.823356
vt 0.565029 0.827672
vt 0.931303 0.812312
vt 0.937699 0.816899
vt 0.255711 0.293462
vt 0.254752 0.297970
vt 0.252568 0.300185
vt 0.535557 0.300185
vt 0.533373 0.297970
vt 0.532414 0.293462
vt 0.276952 0.346684
vt 0.263840 0.346684
vt 0.263840 0.344026
vt 0.276952 0.344026
vt 0.263840 0.338616
vt 0.276952 0.338616
vt 0.526083 0.346684
vt 0.512971 0.346684
vt 0.512971 0.344026
vt 0.526083 0.344026
vt 0.512971 0.338616
vt 0.526083 0.338616
vt 0.254826 0.239169
vt 0.255993 0.241597
vt 0.256443 0.244843
vt 0.531682 0.244843
vt 0.532132 0.241597
vt 0.533299 0.239169
vt 0.276952 0.280274
vt 0.263840 0.280274
vt 0.263840 0.276378
vt 0.276952 0.276378
vt 0.263840 0.273465
vt 0.276952 0.273465
vt 0.526083 0.280274
vt 0.512971 0.280274
vt 0.512971 0.276378
vt 0.526083 0.276378
vt 0.512971 0.273465
vt 0.526083 0.273465
vt 0.232192 0.215410
vt 0.232854 0.219459
vt 0.234465 0.222247
vt 0.553661 0.222247
vt 0.555271 0.219459
vt 0.555933 0.215410
vt 0.536338 0.760442
vt 0.537556 0.758333
vt 0.541341 0.761723
vt 0.538057 0.755270
vt 0.966365 0.739951
vt 0.966897 0.743206
vt 0.962875 0.746809
vt 0.968192 0.745448
vt 0.276952 0.253158
vt 0.263840 0.253158
vt 0.263840 0.249813
vt 0.276952 0.249813
vt 0.263840 0.244954
vt 0.276952 0.244954
vt 0.526083 0.253158
vt 0.512971 0.253158
vt 0.512971 0.249813
vt 0.526083 0.249813
vt 0.512971 0.244954
vt 0.526083 0.244954
vt 0.232540 0.015581
vt 0.263840 0.005158
vt 0.555585 0.015581
vt 0.526083 0.005158
vt 0.541341 0.604079
vt 0.537794 0.604079
vt 0.962875 0.579266
vt 0.966645 0.579266
vt 0.512971 0.338666
vt 0.276952 0.338666
vt 0.276952 0.337473
vt 0.512971 0.337473
vt 0.276952 0.335038
vt 0.512971 0.335038
vt 0.984506 0.806337
vt 0.982749 0.808119
vt 0.981323 0.802746
vt 0.982104 0.801947
vt 0.985277 0.802713
vt 0.982428 0.800315
vt 0.520988 0.817734
vt 0.520263 0.814324
vt 0.522943 0.812068
vt 0.523248 0.813603
vt 0.522641 0.819411
vt 0.523983 0.814355
vt 0.512971 0.282798
vt 0.276952 0.282798
vt 0.276952 0.280491
vt 0.512971 0.280491
vt 0.276952 0.278893
vt 0.512971 0.278893
vt 0.981562 0.762693
vt 0.984565 0.759055
vt 0.985503 0.761008
vt 0.985865 0.763618
vt 0.982428 0.765310
vt 0.982174 0.763764
vt 0.520049 0.775083
vt 0.520933 0.773246
vt 0.523758 0.776668
vt 0.523182 0.777676
vt 0.519709 0.777539
vt 0.522943 0.779131
vt 0.842511 0.877860
vt 0.852282 0.877860
vt 0.852282 0.880350
vt 0.842511 0.880350
vt 0.276952 0.611845
vt 0.263840 0.611845
vt 0.263840 0.607440
vt 0.276952 0.607440
vt 0.656866 0.877860
vt 0.666637 0.877860
vt 0.666637 0.880350
vt 0.656866 0.880350
vt 0.526083 0.611845
vt 0.512971 0.611845
vt 0.512971 0.607440
vt 0.526083 0.607440
vt 0.256818 0.521153
vt 0.254034 0.523409
vt 0.534091 0.523409
vt 0.531307 0.521153
vt 0.972519 0.942361
vt 0.971818 0.941719
vt 0.973427 0.935790
vt 0.974899 0.937143
vt 0.532267 0.945721
vt 0.530027 0.940812
vt 0.531412 0.939539
vt 0.532926 0.945117
vt 0.512971 0.548735
vt 0.276952 0.548735
vt 0.276952 0.547018
vt 0.512971 0.547018
vt 0.276952 0.546060
vt 0.512971 0.546060
vt 0.512971 0.601778
vt 0.276952 0.601778
vt 0.276952 0.600375
vt 0.512971 0.600375
vt 0.276952 0.596988
vt 0.512971 0.596988
vt 0.842511 0.873709
vt 0.666637 0.873709
vt 0.980195 0.979055
vt 0.981992 0.987615
vt 0.985662 0.977323
vt 0.981183 0.975845
vt 0.973032 0.943511
vt 0.975982 0.939552
vt 0.529008 0.943079
vt 0.531784 0.946804
vt 0.524114 0.977227
vt 0.519900 0.978617
vt 0.518893 0.983817
vt 0.524071 0.979363
vt 0.986732 0.982849
vt 0.986167 0.985801
vt 0.981229 0.978115
vt 0.530604 0.517482
vt 0.257521 0.517482
vt 0.983928 0.987615
s 0
usemtl Material
f 68/1/1 49/2/1 82/3/1 81/4/1
f 64/5/2 50/6/2 7/7/2 25/8/2
f 42/9/1 31/10/1 5/11/1 28/12/1
f 65/13/3 32/14/3 4/15/3 52/16/3
f 41/17/4 30/18/4 3/19/4 27/20/4
f 38/21/4 33/22/4 11/23/4 18/24/4
f 37/25/1 34/26/1 12/27/1 19/28/1
f 58/29/5 54/30/5 10/31/5 20/32/5
f 33/22/4 35/33/4 15/34/4 11/23/4
f 34/26/1 36/35/1 16/36/1 12/27/1
f 54/30/5 56/37/5 13/38/5 10/31/5
f 51/39/5 58/29/5 20/32/5 8/40/5
f 29/41/1 37/25/1 19/28/1 6/42/1
f 32/43/4 38/21/4 18/24/4 4/44/4
f 35/33/4 39/45/4 23/46/4 15/34/4
f 36/35/1 40/47/1 24/48/1 16/36/1
f 56/37/5 62/49/5 21/50/5 13/38/5
f 48/51/4 41/17/4 27/20/4 44/52/4
f 47/53/1 42/9/1 28/12/1 45/54/1
f 70/55/5 64/5/5 25/8/5 46/56/5
f 46/57/1 25/58/1 42/9/1 47/53/1
f 43/59/4 26/60/4 41/17/4 48/51/4
f 13/61/1 21/62/1 40/47/1 36/35/1
f 14/63/4 22/64/4 39/45/4 35/33/4
f 2/65/4 17/66/4 38/21/4 32/43/4
f 8/67/1 20/68/1 37/25/1 29/41/1
f 10/69/1 13/61/1 36/35/1 34/26/1
f 9/70/4 14/63/4 35/33/4 33/22/4
f 20/68/1 10/69/1 34/26/1 37/25/1
f 17/66/4 9/70/4 33/22/4 38/21/4
f 26/60/4 1/71/4 30/18/4 41/17/4
f 97/72/3 2/73/3 32/14/3 65/13/3
f 25/58/1 7/74/1 31/10/1 42/9/1
f 30/18/4 1/71/4 80/75/4 75/76/4
f 22/64/4 43/59/4 48/51/4 39/45/4
f 21/62/1 46/57/1 47/53/1 40/47/1
f 62/49/5 70/55/5 46/56/5 21/50/5
f 40/47/1 47/53/1 45/54/1 24/48/1
f 39/45/4 48/51/4 44/52/4 23/46/4
f 23/77/5 44/78/5 69/79/5 61/80/5
f 61/80/5 69/79/5 70/55/5 62/49/5
f 235/81/1 255/82/1 79/83/1 233/84/1
f 6/85/3 98/86/3 66/87/3 29/88/3
f 98/86/3 97/72/3 65/13/3 66/87/3
f 44/78/5 27/89/5 63/90/5 69/79/5
f 69/79/5 63/90/5 64/5/5 70/55/5
f 15/91/5 23/77/5 61/80/5 55/92/5
f 55/92/5 61/80/5 62/49/5 56/37/5
f 4/93/5 18/94/5 57/95/5 52/96/5
f 52/96/5 57/95/5 58/29/5 51/39/5
f 11/97/5 15/91/5 55/92/5 53/98/5
f 53/98/5 55/92/5 56/37/5 54/30/5
f 18/94/5 11/97/5 53/98/5 57/95/5
f 57/95/5 53/98/5 54/30/5 58/29/5
f 29/88/3 66/87/3 51/99/3 8/100/3
f 66/87/3 65/13/3 52/16/3 51/99/3
f 27/89/2 3/101/2 49/102/2 63/90/2
f 63/90/2 49/102/2 50/6/2 64/5/2
f 3/19/4 30/18/4 75/76/4 76/103/4
f 68/104/6 67/105/6 50/106/6 49/107/6
f 84/108/7 77/109/7 74/110/7 73/111/7
f 83/112/8 78/113/8 77/109/8 84/108/8
f 80/114/8 79/115/8 81/116/8 75/117/8
f 75/117/7 81/116/7 82/118/7 76/119/7
f 5/11/1 31/10/1 77/120/1 78/121/1
f 49/107/9 3/122/9 76/119/9 82/118/9
f 7/123/9 50/106/9 73/111/9 74/110/9
f 31/10/1 7/74/1 74/124/1 77/120/1
f 50/125/4 67/126/4 84/127/4 73/128/4
f 2/73/3 97/72/3 94/129/3 87/130/3
f 98/86/3 6/85/3 86/131/3 85/132/3
f 98/133/10 99/134/10 100/135/10 97/136/10
f 106/137/11 60/138/11 102/139/11
f 107/140/11 71/141/11 103/142/11
f 110/143/11 59/144/11 101/145/11
f 104/146/11 111/147/11 72/148/11
f 107/149/12 108/150/12 158/151/12 139/152/12
f 116/153/13 120/154/13 134/155/13 133/156/13
f 59/157/14 110/158/14 156/159/14 155/160/14
f 115/161/15 121/162/15 126/163/15 128/164/15
f 118/165/16 114/166/16 135/167/16 136/168/16
f 108/150/17 72/169/17 157/170/17 158/151/17
f 122/171/18 121/162/18 153/172/18 145/173/18
f 112/174/19 60/175/19 159/176/19 152/177/19
f 120/154/20 116/153/20 144/178/20 143/179/20
f 121/162/21 115/161/21 150/180/21 153/172/21
f 149/181/22 155/182/22 131/183/22 129/184/22
f 105/185/23 59/186/23 155/187/23 149/188/23
f 122/171/24 113/189/24 131/190/24 132/191/24
f 114/166/25 118/165/25 141/192/25 142/193/25
f 111/194/4 112/174/4 152/177/4 137/195/4
f 138/196/26 140/197/26 128/198/26 126/199/26
f 139/200/27 127/201/27 128/198/27 140/197/27
f 134/202/28 158/203/28 157/204/28 133/205/28
f 60/206/29 106/207/29 160/208/29 159/209/29
f 119/210/30 115/211/30 128/212/30 127/213/30
f 139/200/11 158/203/11 134/202/11 127/201/11
f 121/162/4 122/171/4 132/191/4 126/163/4
f 160/214/11 149/181/11 129/184/11 136/215/11
f 72/216/31 111/194/31 137/195/31 157/217/31
f 156/218/11 138/196/11 126/199/11 132/219/11
f 135/220/32 130/221/32 152/222/32 159/223/32
f 130/221/11 125/224/11 137/225/11 152/222/11
f 117/226/12 118/165/12 136/168/12 129/227/12
f 115/211/33 119/210/33 151/228/33 150/229/33
f 120/154/34 119/210/34 127/213/34 134/155/34
f 71/230/35 107/149/35 139/152/35 140/231/35
f 117/226/36 148/232/36 141/192/36 118/165/36
f 117/226/37 113/233/37 146/234/37 148/232/37
f 156/218/38 132/219/38 131/183/38 155/182/38
f 123/235/39 124/236/39 147/237/39 154/238/39
f 160/214/40 136/215/40 135/220/40 159/223/40
f 124/236/41 114/239/41 142/240/41 147/237/41
f 116/241/42 123/235/42 154/238/42 144/242/42
f 119/210/43 120/154/43 143/179/43 151/228/43
f 113/189/44 122/171/44 145/173/44 146/243/44
f 133/205/45 157/204/45 137/225/45 125/224/45
f 123/235/46 116/241/46 133/244/46 125/245/46
f 114/239/47 124/236/47 130/246/47 135/247/47
f 109/248/48 71/249/48 140/250/48 138/251/48
f 124/236/1 123/235/1 125/245/1 130/246/1
f 113/233/49 117/226/49 129/227/49 131/252/49
f 110/158/1 109/248/1 138/251/1 156/159/1
f 106/207/34 105/185/34 149/188/34 160/208/34
f 112/253/11 111/147/11 104/146/11 102/139/11
f 72/148/11 108/254/11 104/146/11
f 108/254/11 107/140/11 103/142/11 104/146/11
f 71/141/11 109/255/11 103/142/11
f 109/255/11 110/143/11 101/145/11 103/142/11
f 59/144/11 105/256/11 101/145/11
f 105/256/11 106/137/11 102/139/11 101/145/11
f 60/138/11 112/253/11 102/139/11
f 161/257/4 163/258/4 26/60/4
f 163/258/4 162/259/4 26/60/4
f 164/260/1 166/261/1 28/12/1
f 166/261/1 165/262/1 28/12/1
f 167/263/50 162/264/50 163/265/50 169/266/50
f 169/266/51 163/265/51 161/267/51 168/268/51
f 164/269/50 171/270/50 172/271/50 166/272/50
f 166/272/51 172/271/51 170/273/51 165/274/51
f 1/71/4 26/60/4 162/259/4 89/275/4
f 167/263/52 88/276/52 89/277/52 162/264/52
f 28/12/1 5/11/1 93/278/1 164/260/1
f 164/269/52 93/279/52 95/280/52 171/270/52
f 173/281/4 175/282/4 43/59/4
f 175/282/4 174/283/4 43/59/4
f 176/284/1 178/285/1 45/54/1
f 178/285/1 177/286/1 45/54/1
f 179/287/1 181/288/1 104/289/1
f 181/288/1 180/290/1 104/289/1
f 182/291/4 184/292/4 103/293/4
f 184/292/4 183/294/4 103/293/4
f 179/295/53 174/296/53 175/297/53 181/298/53
f 181/298/54 175/297/54 173/299/54 180/300/54
f 176/301/53 183/302/53 184/303/53 178/304/53
f 178/304/54 184/303/54 182/305/54 177/306/54
f 43/59/4 22/64/4 90/307/4 173/281/4
f 26/60/4 43/59/4 174/283/4 161/257/4
f 92/308/55 180/300/55 173/299/55 90/309/55
f 179/295/56 168/268/56 161/267/56 174/296/56
f 24/48/1 45/54/1 177/286/1 91/310/1
f 91/311/55 177/306/55 182/305/55 96/312/55
f 45/54/1 28/12/1 165/262/1 176/284/1
f 176/301/56 165/274/56 170/273/56 183/302/56
f 102/313/1 104/289/1 180/290/1 92/314/1
f 103/293/4 101/315/4 96/316/4 182/291/4
f 185/317/4 187/318/4 14/63/4
f 187/318/4 186/319/4 14/63/4
f 188/320/1 190/321/1 16/36/1
f 190/321/1 189/322/1 16/36/1
f 191/323/57 186/324/57 187/325/57 193/326/57
f 193/326/58 187/325/58 185/327/58 192/328/58
f 188/329/57 195/330/57 196/331/57 190/332/57
f 190/332/58 196/331/58 194/333/58 189/334/58
f 22/64/4 14/63/4 186/319/4 90/307/4
f 191/323/59 92/308/59 90/309/59 186/324/59
f 188/329/59 91/311/59 96/312/59 195/330/59
f 16/36/1 24/48/1 91/310/1 188/320/1
f 197/335/4 199/336/4 9/70/4
f 199/336/4 198/337/4 9/70/4
f 200/338/1 202/339/1 12/27/1
f 202/339/1 201/340/1 12/27/1
f 203/341/60 198/342/60 199/343/60 205/344/60
f 205/344/61 199/343/61 197/345/61 204/346/61
f 200/347/60 207/348/60 208/349/60 202/350/60
f 202/350/61 208/349/61 206/351/61 201/352/61
f 203/341/62 192/328/62 185/327/62 198/342/62
f 14/63/4 9/70/4 198/337/4 185/317/4
f 12/27/1 16/36/1 189/322/1 200/338/1
f 200/347/62 189/334/62 194/333/62 207/348/62
f 209/353/4 211/354/4 17/66/4
f 211/354/4 210/355/4 17/66/4
f 212/356/1 214/357/1 19/28/1
f 214/357/1 213/358/1 19/28/1
f 215/359/1 217/360/1 100/361/1
f 217/360/1 216/362/1 100/361/1
f 218/363/4 220/364/4 99/365/4
f 220/364/4 219/366/4 99/365/4
f 215/367/63 210/368/63 211/369/63 217/370/63
f 217/370/64 211/369/64 209/371/64 216/372/64
f 212/373/63 219/374/63 220/375/63 214/376/63
f 214/376/64 220/375/64 218/377/64 213/378/64
f 17/66/4 2/65/4 87/379/4 209/353/4
f 9/70/4 17/66/4 210/355/4 197/335/4
f 94/136/65 216/372/65 209/371/65 87/380/65
f 215/367/66 204/346/66 197/345/66 210/368/66
f 19/28/1 12/27/1 201/340/1 212/356/1
f 6/42/1 19/28/1 213/358/1 86/381/1
f 86/382/65 213/378/65 218/377/65 85/133/65
f 212/373/66 201/352/66 206/351/66 219/374/66
f 97/383/1 100/361/1 216/362/1 94/384/1
f 99/365/4 98/385/4 85/386/4 218/363/4
f 221/387/67 225/388/67 226/389/67 223/390/67
f 223/390/68 226/389/68 224/391/68 222/392/68
f 221/387/69 101/145/69 102/139/69 225/388/69
f 196/393/4 195/394/4 221/395/4 223/396/4
f 101/315/4 221/395/4 195/394/4 96/316/4
f 194/397/4 196/393/4 223/396/4 222/398/4
f 193/399/1 192/400/1 224/401/1 226/402/1
f 191/403/1 193/399/1 226/402/1 225/404/1
f 225/404/1 102/313/1 92/314/1 191/403/1
f 227/405/70 231/406/70 232/407/70 229/408/70
f 229/408/71 232/407/71 230/409/71 228/410/71
f 227/405/10 222/392/10 224/391/10 231/406/10
f 99/134/72 228/410/72 230/409/72 100/135/72
f 228/411/4 99/365/4 219/366/4 206/412/4
f 208/413/4 207/414/4 227/415/4 229/416/4
f 222/398/4 227/415/4 207/414/4 194/397/4
f 206/412/4 208/413/4 229/416/4 228/411/4
f 205/417/1 204/418/1 230/419/1 232/420/1
f 100/361/1 230/419/1 204/418/1 215/359/1
f 203/421/1 205/417/1 232/420/1 231/422/1
f 231/422/1 224/401/1 192/400/1 203/421/1
f 233/423/73 237/424/73 238/425/73 235/426/73
f 235/427/74 238/428/74 236/429/74 234/430/74
f 239/431/73 243/432/73 244/433/73 241/434/73
f 241/435/74 244/436/74 242/437/74 240/438/74
f 79/115/75 80/114/75 237/424/75 233/423/75
f 89/277/76 88/276/76 234/430/76 236/429/76
f 1/71/4 238/439/4 237/440/4 80/75/4
f 78/113/75 83/112/75 243/432/75 239/431/75
f 95/280/76 93/279/76 240/438/76 242/437/76
f 78/121/1 239/441/1 241/442/1 5/11/1
f 247/443/4 246/444/4 170/445/4 172/446/4
f 250/447/1 169/448/1 168/449/1 248/450/1
f 245/451/77 249/452/77 250/453/77 247/454/77
f 247/454/78 250/453/78 248/455/78 246/456/78
f 103/142/79 246/456/79 248/455/79 104/146/79
f 251/457/80 255/458/80 256/459/80 253/460/80
f 253/460/81 256/459/81 254/461/81 252/462/81
f 245/451/82 252/462/82 254/461/82 249/452/82
f 255/463/75 251/464/75 67/105/75 68/104/75
f 67/126/4 251/465/4 83/466/4 84/127/4
f 95/467/4 252/468/4 245/469/4 171/470/4
f 255/82/1 68/1/1 81/4/1 79/83/1
f 167/471/1 249/472/1 254/473/1 88/474/1
f 255/82/1 235/81/1 234/475/1 256/476/1
f 234/475/1 88/474/1 254/473/1 256/476/1
f 242/477/4 244/478/4 251/465/4 253/479/4
f 95/467/4 242/477/4 253/479/4 252/468/4
f 5/11/1 241/442/1 240/480/1 93/278/1
f 89/275/4 236/481/4 238/439/4 1/71/4
f 250/447/1 249/472/1 167/471/1 169/448/1
f 247/443/4 172/446/4 171/470/4 245/469/4
f 246/444/4 103/293/4 183/294/4 170/445/4
f 104/289/1 248/450/1 168/449/1 179/287/1
f 243/482/4 83/466/4 251/465/4 244/478/4
