# Blender 5.2.1 LTS
# www.blender.org
mtllib Coin slot.mtl
o Coin_Slot
v -0.076058 0.140573 -0.025538
v -0.191831 0.140573 -0.025538
v -0.191831 0.250924 -0.025538
v -0.076058 0.250924 -0.025538
v -0.012036 0.131614 -0.025538
v -0.173961 -0.228117 -0.007837
v -0.272327 0.339113 -0.025538
v -0.012036 0.260588 -0.025538
v -0.024115 0.131614 -0.025538
v -0.173961 -0.076578 -0.025538
v -0.209192 0.271604 -0.025538
v -0.024115 0.260588 -0.025538
v -0.058697 0.119894 -0.035383
v -0.209192 0.119894 -0.035383
v -0.209192 0.271604 -0.035383
v -0.058697 0.271604 -0.035383
v -0.070900 0.134057 -0.035383
v -0.196989 0.134057 -0.035383
v -0.196989 0.257441 -0.035383
v -0.070900 0.257441 -0.035383
v -0.070900 0.134057 -0.025538
v -0.196989 0.134057 -0.025538
v -0.196989 0.257441 -0.025538
v -0.070900 0.257441 -0.025538
v -0.076058 0.140573 -0.046355
v -0.191831 0.140573 -0.046355
v -0.191831 0.250924 -0.046355
v -0.076058 0.250924 -0.046355
v 0.074799 0.339113 -0.025538
v -0.026087 -0.228117 -0.007837
v -0.058697 0.271604 -0.025538
v -0.026087 -0.076578 -0.025538
v -0.012036 0.260588 0.028548
v -0.012036 0.131614 0.028548
v -0.024115 0.260588 0.028548
v -0.024115 0.131614 0.028548
v 0.074799 -0.332829 -0.025538
v -0.272327 -0.332829 -0.025538
v -0.058697 0.119894 -0.025538
v -0.209192 0.119894 -0.025538
v -0.013238 -0.240593 -0.025538
v -0.186810 -0.240593 -0.025538
v -0.013238 -0.064103 -0.025538
v -0.186810 -0.064103 -0.025538
v -0.013238 -0.240593 -0.049106
v -0.186810 -0.240593 -0.049106
v -0.013238 -0.064103 -0.049106
v -0.186810 -0.064103 -0.049106
v -0.026087 -0.228117 -0.049106
v -0.173961 -0.228117 -0.049106
v -0.026087 -0.076578 -0.049106
v -0.173961 -0.076578 -0.049106
v -0.272327 0.339113 0.046191
v 0.074799 0.339113 0.046191
v 0.074799 -0.332829 0.046191
v -0.272327 -0.332829 0.046191
vn 1.0000 -0.0000 -0.0000
vn -0.0000 -0.1160 -0.9932
vn -0.0000 -0.0000 -1.0000
vn -0.0000 -1.0000 -0.0000
vn -0.0000 1.0000 -0.0000
vn -1.0000 -0.0000 -0.0000
vt 0.349095 0.783091
vt 0.349095 0.868183
vt 0.316991 0.868183
vt 0.316991 0.783091
vt 0.272765 0.775211
vt 0.272765 0.547159
vt 0.389861 0.547159
vt 0.389861 0.775211
vt 0.055995 0.209817
vt 0.055995 0.441912
vt 0.003940 0.539279
vt 0.003940 0.003940
vt 0.172973 0.441912
vt 0.522054 0.539279
vt 0.716637 0.866504
vt 0.698008 0.866504
vt 0.698008 0.783091
vt 0.716637 0.783091
vt 0.945736 0.964387
vt 0.945736 0.769931
vt 0.960919 0.769931
vt 0.960919 0.964387
vt 0.264885 0.787135
vt 0.264885 0.882276
vt 0.249702 0.882276
vt 0.249702 0.787135
vt 0.922673 0.762051
vt 0.922673 0.529956
vt 0.937856 0.529956
vt 0.937856 0.762051
vt 0.870573 0.779420
vt 0.870573 0.896404
vt 0.855390 0.896404
vt 0.855390 0.779420
vt 0.253964 0.760435
vt 0.253964 0.565979
vt 0.264885 0.547159
vt 0.264885 0.779255
vt 0.158827 0.565979
vt 0.158827 0.760435
vt 0.147906 0.779255
vt 0.147906 0.547159
vt 0.648436 0.900075
vt 0.648436 0.783091
vt 0.663619 0.783091
vt 0.663619 0.900075
vt 0.147906 0.882276
vt 0.147906 0.787135
vt 0.163089 0.787135
vt 0.163089 0.882276
vt 0.945736 0.762051
vt 0.945736 0.529956
vt 0.960919 0.529956
vt 0.960919 0.762051
vt 0.922673 0.964387
vt 0.922673 0.769932
vt 0.937856 0.769932
vt 0.937856 0.964387
vt 0.487853 0.733660
vt 0.487853 0.555114
vt 0.492878 0.547159
vt 0.492878 0.741615
vt 0.402765 0.555114
vt 0.402765 0.733660
vt 0.397741 0.741615
vt 0.397741 0.547159
vt 0.585846 0.725706
vt 0.500758 0.725706
vt 0.500758 0.547159
vt 0.585846 0.547159
vt 0.882690 0.894929
vt 0.882690 0.716383
vt 0.914793 0.716383
vt 0.914793 0.894929
vt 0.356975 0.868183
vt 0.356975 0.783091
vt 0.389079 0.783091
vt 0.389079 0.868183
vt 0.882690 0.708503
vt 0.882690 0.529956
vt 0.914793 0.529956
vt 0.914793 0.708503
vt 0.163936 0.137857
vt 0.064488 0.137857
vt 0.522054 0.003940
vt 0.064488 0.156486
vt 0.163936 0.156486
vt 0.172973 0.209817
vt 0.671499 0.882539
vt 0.671499 0.783091
vt 0.690128 0.783091
vt 0.690128 0.882539
vt 0.502434 0.833038
vt 0.502434 0.733586
vt 0.585846 0.733586
vt 0.585846 0.833038
vt 0.743145 0.866504
vt 0.724517 0.866504
vt 0.724517 0.783091
vt 0.743145 0.783091
vt 0.481153 0.749495
vt 0.481153 0.848947
vt 0.397741 0.848947
vt 0.397741 0.749495
vt 0.450934 0.407393
vt 0.450934 0.139711
vt 0.314848 0.139711
vt 0.314848 0.407393
vt 0.648436 0.775211
vt 0.648436 0.547159
vt 0.712082 0.547159
vt 0.712082 0.775211
vt 0.847510 0.529956
vt 0.874810 0.646808
vt 0.811164 0.646808
vt 0.811164 0.529956
vt 0.766937 0.797638
vt 0.766937 0.529956
vt 0.803284 0.529956
vt 0.803284 0.797638
vt 0.847510 0.779420
vt 0.847510 0.915511
vt 0.811164 0.915511
vt 0.811164 0.779420
vt 0.130406 0.795026
vt 0.130406 0.566975
vt 0.140026 0.547159
vt 0.140026 0.814842
vt 0.013559 0.566975
vt 0.013559 0.795026
vt 0.003940 0.814842
vt 0.003940 0.547159
vt 0.272765 0.919183
vt 0.272765 0.783091
vt 0.309111 0.783091
vt 0.309111 0.919183
vt 0.811164 0.771540
vt 0.838463 0.654688
vt 0.874809 0.654688
vt 0.874809 0.771540
vt 0.604210 0.814842
vt 0.604210 0.547159
vt 0.640556 0.547159
vt 0.640556 0.814842
vt 0.719962 0.775211
vt 0.719962 0.547159
vt 0.756308 0.547159
vt 0.756308 0.775211
vt 0.877559 0.003940
vt 0.877559 0.522076
vt 0.766937 0.522076
vt 0.766937 0.003940
vt 0.640556 0.003940
vt 0.640556 0.539279
vt 0.529935 0.539279
vt 0.529935 0.003940
vt 0.885439 0.522076
vt 0.885439 0.003940
vt 0.996060 0.003940
vt 0.996060 0.522076
vt 0.759057 0.003940
vt 0.759057 0.539279
vt 0.648436 0.539279
vt 0.648436 0.003940
s 0
usemtl Material
f 4/1/1 1/2/1 25/3/1 28/4/1
f 10/5/2 32/6/2 30/7/2 6/8/2
f 31/9/3 11/10/3 7/11/3 29/12/3
f 11/10/3 40/13/3 38/14/3 7/11/3
f 12/15/4 8/16/4 33/17/4 35/18/4
f 22/19/5 21/20/5 17/21/5 18/22/5
f 23/23/1 22/24/1 18/25/1 19/26/1
f 11/27/5 31/28/5 16/29/5 15/30/5
f 31/31/1 39/32/1 13/33/1 16/34/1
f 18/35/3 17/36/3 13/37/3 14/38/3
f 20/39/3 19/40/3 15/41/3 16/42/3
f 19/40/3 18/35/3 14/38/3 15/41/3
f 17/36/3 20/39/3 16/42/3 13/37/3
f 40/43/6 11/44/6 15/45/6 14/46/6
f 21/47/6 24/48/6 20/49/6 17/50/6
f 39/51/4 40/52/4 14/53/4 13/54/4
f 24/55/4 23/56/4 19/57/4 20/58/4
f 2/59/3 1/60/3 21/61/3 22/62/3
f 4/63/3 3/64/3 23/65/3 24/66/3
f 3/64/3 2/59/3 22/62/3 23/65/3
f 1/60/3 4/63/3 24/66/3 21/61/3
f 26/67/3 27/68/3 28/69/3 25/70/3
f 3/71/5 4/72/5 28/73/5 27/74/5
f 2/75/6 3/76/6 27/77/6 26/78/6
f 1/79/4 2/80/4 26/81/4 25/82/4
f 5/83/3 8/84/3 29/12/3 37/85/3
f 12/86/3 9/87/3 39/88/3 31/9/3
f 9/87/3 5/83/3 37/85/3 39/88/3
f 8/84/3 12/86/3 31/9/3 29/12/3
f 36/89/3 35/90/3 33/91/3 34/92/3
f 9/93/1 12/94/1 35/95/1 36/96/1
f 5/97/5 9/98/5 36/99/5 34/100/5
f 8/101/6 5/102/6 34/103/6 33/104/6
f 42/105/3 41/106/3 37/85/3 38/14/3
f 43/107/3 44/108/3 40/13/3 39/88/3
f 44/108/3 42/105/3 38/14/3 40/13/3
f 41/106/3 43/107/3 39/88/3 37/85/3
f 6/109/5 30/110/5 49/111/5 50/112/5
f 10/113/1 6/114/1 50/115/1 52/116/1
f 44/117/5 43/118/5 47/119/5 48/120/5
f 43/121/1 41/122/1 45/123/1 47/124/1
f 50/125/3 49/126/3 45/127/3 46/128/3
f 51/129/3 52/130/3 48/131/3 47/132/3
f 52/130/3 50/125/3 46/128/3 48/131/3
f 49/126/3 51/129/3 47/132/3 45/127/3
f 42/133/6 44/134/6 48/135/6 46/136/6
f 30/137/6 32/138/6 51/139/6 49/140/6
f 41/141/4 42/142/4 46/143/4 45/144/4
f 32/145/4 10/146/4 52/147/4 51/148/4
f 7/149/6 38/150/6 56/151/6 53/152/6
f 38/153/4 37/154/4 55/155/4 56/156/4
f 37/157/1 29/158/1 54/159/1 55/160/1
f 29/161/5 7/162/5 53/163/5 54/164/5
