# Blender 5.2.1 LTS
# www.blender.org
mtllib stick_base.mtl
o stick_base
v 0.576626 0.262740 -0.808607
v 0.606755 0.264440 -0.798966
v 0.606755 0.325317 -0.809701
v 0.576626 0.323617 -0.819342
v 0.625376 0.268890 -0.773726
v 0.625376 0.329768 -0.784461
v 0.625376 0.274391 -0.742528
v 0.625376 0.335269 -0.753262
v 0.606755 0.278842 -0.717288
v 0.606755 0.339719 -0.728022
v 0.576626 0.280542 -0.707647
v 0.576626 0.341419 -0.718382
v 0.546497 0.278842 -0.717288
v 0.546497 0.339719 -0.728022
v 0.527876 0.274391 -0.742528
v 0.527876 0.335269 -0.753262
v 0.527876 0.268890 -0.773726
v 0.527876 0.329768 -0.784461
v 0.546497 0.264440 -0.798966
v 0.546497 0.325317 -0.809701
v 0.583253 0.330934 -0.777844
v 0.576626 0.330560 -0.779965
v 0.587348 0.331913 -0.772293
v 0.587348 0.333123 -0.765431
v 0.583253 0.334102 -0.759879
v 0.576626 0.334476 -0.757759
v 0.569999 0.334102 -0.759879
v 0.565904 0.333123 -0.765431
v 0.565904 0.331913 -0.772293
v 0.569999 0.330934 -0.777844
vn -0.0000 -0.1736 -0.9848
vn 0.5878 -0.1405 -0.7967
vn 0.9511 -0.0537 -0.3043
vn 0.9511 0.0537 0.3043
vn 0.5878 0.1405 0.7967
vn -0.0000 0.1736 0.9848
vn -0.5878 0.1405 0.7967
vn -0.9511 0.0537 0.3043
vn -0.9511 -0.0537 -0.3043
vn -0.5878 -0.1405 -0.7967
vn -0.0000 0.9848 -0.1736
vt 0.500000 0.024749
vt 0.500000 0.237358
vt 0.402488 0.237358
vt 0.402488 0.024749
vt 0.304977 0.237358
vt 0.304977 0.024749
vt 0.207465 0.237358
vt 0.207465 0.024749
vt 0.109953 0.237358
vt 0.109953 0.024749
vt 0.012442 0.237358
vt 0.012442 0.024749
vt 0.987558 0.024749
vt 0.987558 0.237358
vt 0.890047 0.237358
vt 0.890047 0.024749
vt 0.792535 0.237358
vt 0.792535 0.024749
vt 0.695023 0.237358
vt 0.695023 0.024749
vt 0.597512 0.237358
vt 0.597512 0.024749
vt 0.522082 0.957053
vt 0.344552 0.899370
vt 0.483035 0.708764
vt 0.522082 0.721451
vt 0.522082 0.352987
vt 0.699613 0.410670
vt 0.561130 0.601275
vt 0.522082 0.588588
vt 0.234832 0.561686
vt 0.344552 0.410670
vt 0.483035 0.601275
vt 0.458902 0.634491
vt 0.809333 0.748353
vt 0.699613 0.899370
vt 0.561130 0.708764
vt 0.585262 0.675548
vt 0.809333 0.561686
vt 0.585262 0.634491
vt 0.234832 0.748353
vt 0.458902 0.675548
s 1
usemtl stick
f 1/1/1 4/2/1 3/3/2 2/4/2
f 2/4/2 3/3/2 6/5/3 5/6/3
f 5/6/3 6/5/3 8/7/4 7/8/4
f 7/8/4 8/7/4 10/9/5 9/10/5
f 9/10/5 10/9/5 12/11/6 11/12/6
f 11/13/6 12/14/6 14/15/7 13/16/7
f 13/16/7 14/15/7 16/17/8 15/18/8
f 15/18/8 16/17/8 18/19/9 17/20/9
f 17/20/9 18/19/9 20/21/10 19/22/10
f 19/22/10 20/21/10 4/2/1 1/1/1
s 0
f 4/23/11 20/24/11 30/25/11 22/26/11
f 12/27/11 10/28/11 25/29/11 26/30/11
f 16/31/11 14/32/11 27/33/11 28/34/11
f 6/35/11 3/36/11 21/37/11 23/38/11
f 8/39/11 6/35/11 23/38/11 24/40/11
f 18/41/11 16/31/11 28/34/11 29/42/11
f 3/36/11 4/23/11 22/26/11 21/37/11
f 14/32/11 12/27/11 26/30/11 27/33/11
f 10/28/11 8/39/11 24/40/11 25/29/11
f 20/24/11 18/41/11 29/42/11 30/25/11
