# Blender 5.2.1 LTS
# www.blender.org
mtllib joystick.mtl
o stick_moveable
v 0.576626 0.506831 -0.799598
v 0.569999 0.356816 -0.782408
v 0.565904 0.357795 -0.776856
v 0.565904 0.359005 -0.769994
v 0.569999 0.359983 -0.764443
v 0.576626 0.360357 -0.762322
v 0.583253 0.359983 -0.764443
v 0.587348 0.359005 -0.769994
v 0.587348 0.357795 -0.776856
v 0.576626 0.356442 -0.784528
v 0.583253 0.356816 -0.782408
v 0.583253 0.307578 -0.773726
v 0.576626 0.307204 -0.775846
v 0.587348 0.308557 -0.768174
v 0.587348 0.309767 -0.761312
v 0.583253 0.310746 -0.755761
v 0.576626 0.311120 -0.753640
v 0.569999 0.310746 -0.755761
v 0.565904 0.309767 -0.761312
v 0.565904 0.308557 -0.768174
v 0.569999 0.307578 -0.773726
v 0.598333 0.489873 -0.826945
v 0.553032 0.359731 -0.765876
v 0.600220 0.357068 -0.780975
v 0.553032 0.357068 -0.780975
v 0.562044 0.354914 -0.793191
v 0.600220 0.359731 -0.765876
v 0.591208 0.361885 -0.753660
v 0.576626 0.362708 -0.748994
v 0.562044 0.361885 -0.753660
v 0.576626 0.354092 -0.797856
v 0.591208 0.354914 -0.793191
v 0.539835 0.491595 -0.784773
v 0.613417 0.487444 -0.808318
v 0.539835 0.487444 -0.808318
v 0.553888 0.484085 -0.827366
v 0.613417 0.491595 -0.784773
v 0.599364 0.494954 -0.765724
v 0.576626 0.496237 -0.758448
v 0.553888 0.494954 -0.765724
v 0.576626 0.482802 -0.834642
v 0.599364 0.484085 -0.827366
v 0.547241 0.503464 -0.789309
v 0.606011 0.500148 -0.808114
v 0.547241 0.500148 -0.808114
v 0.558465 0.497465 -0.823328
v 0.606011 0.503464 -0.789309
v 0.594787 0.506146 -0.774095
v 0.576626 0.507171 -0.768284
v 0.558465 0.506146 -0.774095
v 0.576626 0.496441 -0.829139
v 0.594787 0.497465 -0.823328
v 0.565660 0.507449 -0.796089
v 0.587592 0.506212 -0.803106
v 0.565660 0.506212 -0.803106
v 0.569849 0.505211 -0.808784
v 0.587592 0.507449 -0.796089
v 0.583403 0.508451 -0.790411
v 0.576626 0.508833 -0.788243
v 0.569849 0.508451 -0.790411
v 0.576626 0.504829 -0.810952
v 0.583403 0.505211 -0.808784
v 0.541504 0.493079 -0.808761
v 0.576626 0.501473 -0.761154
v 0.611748 0.493079 -0.808761
v 0.576626 0.488648 -0.833890
v 0.554920 0.489873 -0.826945
v 0.541504 0.497042 -0.786284
v 0.554920 0.500249 -0.768100
v 0.598333 0.500249 -0.768100
v 0.611748 0.497042 -0.786284
v 0.576626 0.502316 -0.820181
v 0.564250 0.503015 -0.816221
v 0.556602 0.504843 -0.805854
v 0.556602 0.507102 -0.793039
v 0.564250 0.508930 -0.782671
v 0.576626 0.509628 -0.778711
v 0.589002 0.508930 -0.782671
v 0.596650 0.507102 -0.793039
v 0.596650 0.504843 -0.805854
v 0.589002 0.503015 -0.816221
v 0.550177 0.358459 -0.782162
v 0.576626 0.364780 -0.746311
v 0.603075 0.358459 -0.782162
v 0.560280 0.356044 -0.795856
v 0.550177 0.361443 -0.765236
v 0.560280 0.363858 -0.751542
v 0.592972 0.363858 -0.751542
v 0.603075 0.361443 -0.765236
v 0.592972 0.356044 -0.795856
v 0.576626 0.355122 -0.801086
vn -0.0000 -0.9848 0.1736
vn -0.0000 -0.9848 0.1737
vn 0.9511 0.0537 0.3043
vn 0.9511 -0.0537 -0.3043
vn -0.5878 0.1405 0.7967
vn -0.0000 0.1737 0.9848
vn -0.5878 -0.1405 -0.7967
vn -0.9511 -0.0537 -0.3043
vn 0.5878 -0.1405 -0.7967
vn 0.5878 0.1405 0.7967
vn -0.9511 0.0537 0.3043
vn -0.0000 -0.1736 -0.9848
vn -0.8832 -0.4152 -0.2182
vn -0.8832 -0.3156 0.3470
vn -0.9469 0.1450 0.2869
vn -0.9469 0.0381 -0.3191
vn -0.0000 -0.2042 0.9789
vn 0.5458 -0.2350 0.8043
vn 0.5852 0.2314 0.7771
vn -0.0000 0.2645 0.9644
vn 0.8832 -0.4152 -0.2182
vn 0.5458 -0.4959 -0.6754
vn 0.5852 -0.0483 -0.8094
vn 0.9469 0.0381 -0.3191
vn -0.5458 -0.4959 -0.6754
vn -0.5852 -0.0483 -0.8094
vn -0.5458 -0.2350 0.8043
vn -0.5852 0.2314 0.7771
vn 0.8832 -0.3156 0.3470
vn 0.9469 0.1450 0.2869
vn -0.0000 -0.5267 -0.8501
vn -0.0000 -0.0813 -0.9967
vn 0.5284 0.3052 -0.7923
vn -0.0000 0.2754 -0.9613
vn -0.0000 0.6485 -0.7612
vn 0.3745 0.6696 -0.6414
vn -0.8549 0.3832 -0.3496
vn -0.8549 0.4797 0.1975
vn -0.6059 0.7933 0.0600
vn -0.6059 0.7249 -0.3277
vn -0.0000 0.5876 0.8092
vn 0.5284 0.5578 0.6401
vn 0.3745 0.8486 0.3737
vn -0.0000 0.8697 0.4935
vn 0.8549 0.3832 -0.3496
vn 0.6059 0.7249 -0.3277
vn -0.5284 0.3052 -0.7923
vn -0.3745 0.6696 -0.6414
vn -0.5284 0.5578 0.6401
vn -0.3745 0.8486 0.3737
vn 0.8549 0.4797 0.1975
vn 0.6059 0.7933 0.0600
vn 0.2668 0.9603 -0.0813
vn 0.1649 0.9847 0.0568
vn -0.0000 0.8966 -0.4429
vn 0.1649 0.9059 -0.3902
vn -0.2668 0.9603 -0.0813
vn -0.2668 0.9302 -0.2520
vn -0.0000 0.9940 0.1096
vn 0.2668 0.9302 -0.2520
vn -0.1649 0.9059 -0.3902
vn -0.1649 0.9847 0.0568
vn -0.0000 0.9848 -0.1736
vn -0.0521 0.9804 -0.1901
vn -0.0521 0.9863 -0.1567
vn 0.0521 0.9863 -0.1567
vn 0.0521 0.9804 -0.1901
vn -0.0000 0.9738 -0.2273
vn -0.0322 0.9756 -0.2170
vn -0.0000 0.9928 -0.1194
vn 0.0322 0.9910 -0.1297
vn -0.0322 0.9910 -0.1297
vn 0.0322 0.9756 -0.2170
vn 0.2731 -0.9373 -0.2164
vn -0.0000 -0.9527 -0.3038
vn 0.2731 -0.8068 0.5240
vn 0.4419 -0.8471 0.2952
vn -0.4419 -0.8471 0.2952
vn -0.2731 -0.8068 0.5240
vn -0.2731 -0.9373 -0.2165
vn 0.4419 -0.8970 0.0124
vn -0.0000 -0.7913 0.6114
vn -0.4419 -0.8970 0.0124
vt 0.852217 0.206954
vt 0.865449 0.188741
vt 0.907036 0.202253
vt 0.877919 0.242329
vt 0.796164 0.166228
vt 0.796164 0.188741
vt 0.754577 0.202253
vt 0.754577 0.152716
vt 0.852217 0.148015
vt 0.830806 0.141059
vt 0.830806 0.097332
vt 0.877919 0.112640
vt 0.830806 0.213910
vt 0.830806 0.257637
vt 0.809396 0.148015
vt 0.783694 0.112640
vt 0.865449 0.166228
vt 0.907036 0.152716
vt 0.809396 0.206954
vt 0.783694 0.242329
vt 0.517700 0.064502
vt 0.541770 0.064502
vt 0.541770 0.275189
vt 0.517700 0.275189
vt 0.686193 0.064502
vt 0.710263 0.064502
vt 0.710263 0.275189
vt 0.686193 0.275189
vt 0.613982 0.064502
vt 0.638052 0.064502
vt 0.638052 0.275189
vt 0.613982 0.275189
vt 0.565841 0.064502
vt 0.565841 0.275189
vt 0.469559 0.064502
vt 0.493630 0.064502
vt 0.493630 0.275189
vt 0.469559 0.275189
vt 0.662123 0.064502
vt 0.662123 0.275189
vt 0.589911 0.064502
vt 0.589911 0.275189
vt 0.575643 0.403701
vt 0.650669 0.403701
vt 0.650669 0.955106
vt 0.575643 0.955106
vt 0.050460 0.403701
vt 0.125486 0.403701
vt 0.125486 0.955106
vt 0.050460 0.955106
vt 0.275538 0.403701
vt 0.350565 0.403701
vt 0.350565 0.955106
vt 0.275538 0.955106
vt 0.500616 0.403701
vt 0.500616 0.955106
vt 0.725696 0.403701
vt 0.800722 0.403701
vt 0.800722 0.955106
vt 0.725695 0.955106
vt 0.200512 0.403701
vt 0.200512 0.955106
vt 0.425591 0.403701
vt 0.425591 0.955106
vt 0.320012 0.354439
vt 0.210522 0.390056
vt 0.210262 0.358859
vt 0.301868 0.329060
vt 0.033363 0.261590
vt 0.033363 0.146575
vt 0.062040 0.155148
vt 0.062040 0.251377
vt 0.210523 0.017861
vt 0.320013 0.053326
vt 0.301868 0.077132
vt 0.210262 0.047458
vt 0.387682 0.261343
vt 0.358484 0.251170
vt 0.101032 0.354592
vt 0.118656 0.329187
vt 0.101032 0.053479
vt 0.118656 0.077259
vt 0.387682 0.146328
vt 0.358484 0.154942
vt 0.311105 0.169808
vt 0.272525 0.116785
vt 0.210101 0.308765
vt 0.272525 0.288459
vt 0.109097 0.169949
vt 0.109097 0.235523
vt 0.210101 0.096565
vt 0.311105 0.235382
vt 0.147677 0.288546
vt 0.147677 0.116871
vt 0.210068 0.202563
vt 0.154755 0.220557
vt 0.154755 0.184646
vt 0.265381 0.184569
vt 0.265381 0.220480
vt 0.210068 0.260667
vt 0.175883 0.249594
vt 0.210068 0.144460
vt 0.244253 0.155532
vt 0.175883 0.155580
vt 0.244253 0.249547
vt 0.200512 0.978688
vt 0.125486 0.978688
vt 0.725695 0.978688
vt 0.650669 0.978688
vt 0.500616 0.978688
vt 0.425591 0.978688
vt 0.275539 0.978688
vt 0.800722 0.978688
vt 0.575642 0.978688
vt 0.350565 0.978688
vt 0.050460 0.978688
vt 0.830806 0.267335
vt 0.777993 0.250176
vt 0.745353 0.149719
vt 0.777993 0.104793
vt 0.883619 0.104793
vt 0.916259 0.149719
vt 0.883619 0.250176
vt 0.745353 0.205250
vt 0.830806 0.087634
vt 0.916259 0.205250
s 0
usemtl stick
f 2/1/1 3/2/1 25/3/1 26/4/1
f 8/5/1 9/6/1 24/7/1 27/8/1
f 5/9/2 6/10/2 29/11/2 30/12/2
f 10/13/1 2/1/1 26/4/1 31/14/1
f 7/15/2 8/5/2 27/8/2 28/16/2
f 4/17/2 5/9/2 30/12/2 23/18/2
f 11/19/1 10/13/1 31/14/1 32/20/1
f 3/2/1 4/17/1 23/18/1 25/3/1
f 9/6/1 11/19/1 32/20/1 24/7/1
f 6/10/2 7/15/2 28/16/2 29/11/2
s 1
f 15/21/3 14/22/4 9/23/4 8/24/3
f 18/25/5 17/26/6 6/27/6 5/28/5
f 21/29/7 20/30/8 3/31/8 2/32/7
f 14/22/4 12/33/9 11/34/9 9/23/4
f 17/35/6 16/36/10 7/37/10 6/38/6
f 20/30/8 19/39/11 4/40/11 3/31/8
f 12/33/9 13/41/12 10/42/12 11/34/9
f 16/36/10 15/21/3 8/24/3 7/37/10
f 19/39/11 18/25/5 5/28/5 4/40/11
f 13/41/12 21/29/7 2/32/7 10/42/12
f 82/43/13 86/44/14 33/45/15 35/46/16
f 83/47/17 88/48/18 38/49/19 39/50/20
f 84/51/21 90/52/22 42/53/23 34/54/24
f 85/55/25 82/43/13 35/46/16 36/56/26
f 87/57/27 83/58/17 39/59/20 40/60/28
f 89/61/29 84/51/21 34/54/24 37/62/30
f 91/63/31 85/55/25 36/56/26 41/64/32
f 86/44/14 87/57/27 40/60/28 33/45/15
f 88/48/18 89/61/29 37/62/30 38/49/19
f 90/52/22 91/63/31 41/64/32 42/53/23
f 22/65/33 66/66/34 51/67/35 52/68/36
f 63/69/37 68/70/38 43/71/39 45/72/40
f 64/73/41 70/74/42 48/75/43 49/76/44
f 65/77/45 22/65/33 52/68/36 44/78/46
f 67/79/47 63/69/37 45/72/40 46/80/48
f 69/81/49 64/73/41 49/76/44 50/82/50
f 71/83/51 65/77/45 44/78/46 47/84/52
f 66/66/34 67/79/47 46/80/48 51/67/35
f 68/70/38 69/81/49 50/82/50 43/71/39
f 70/74/42 71/83/51 47/84/52 48/75/43
f 48/75/43 47/84/52 79/85/53 78/86/54
f 52/68/36 51/67/35 72/87/55 81/88/56
f 45/72/40 43/71/39 75/89/57 74/90/58
f 49/76/44 48/75/43 78/86/54 77/91/59
f 44/78/46 52/68/36 81/88/56 80/92/60
f 46/80/48 45/72/40 74/90/58 73/93/61
f 50/82/50 49/76/44 77/91/59 76/94/62
f 47/84/52 44/78/46 80/92/60 79/85/53
f 51/67/35 46/80/48 73/93/61 72/87/55
f 43/71/39 50/82/50 76/94/62 75/89/57
f 1/95/63 55/96/64 53/97/65
f 1/95/63 57/98/66 54/99/67
f 1/95/63 61/100/68 56/101/69
f 1/95/63 59/102/70 58/103/71
f 1/95/63 53/97/65 60/104/72
f 1/95/63 54/99/67 62/105/73
f 1/95/63 56/101/69 55/96/64
f 1/95/63 58/103/71 57/98/66
f 1/95/63 60/104/72 59/102/70
f 1/95/63 62/105/73 61/100/68
f 38/49/19 37/62/30 71/106/51 70/107/42
f 33/45/15 40/60/28 69/108/49 68/109/38
f 41/64/32 36/56/26 67/110/47 66/111/34
f 37/62/30 34/54/24 65/112/45 71/106/51
f 40/60/28 39/59/20 64/113/41 69/108/49
f 36/56/26 35/46/16 63/114/37 67/110/47
f 34/54/24 42/53/23 22/115/33 65/112/45
f 39/50/20 38/49/19 70/107/42 64/116/41
f 35/46/16 33/45/15 68/109/38 63/114/37
f 42/53/23 41/64/32 66/111/34 22/115/33
f 56/101/69 61/100/68 72/87/55 73/93/61
f 55/96/64 56/101/69 73/93/61 74/90/58
f 53/97/65 55/96/64 74/90/58 75/89/57
f 60/104/72 53/97/65 75/89/57 76/94/62
f 59/102/70 60/104/72 76/94/62 77/91/59
f 58/103/71 59/102/70 77/91/59 78/86/54
f 57/98/66 58/103/71 78/86/54 79/85/53
f 54/99/67 57/98/66 79/85/53 80/92/60
f 62/105/73 54/99/67 80/92/60 81/88/56
f 61/100/68 62/105/73 81/88/56 72/87/55
f 32/20/74 31/14/75 91/117/31 90/118/22
f 28/16/76 27/8/77 89/119/29 88/120/18
f 23/18/78 30/12/79 87/121/27 86/122/14
f 31/14/75 26/4/80 85/123/25 91/117/31
f 27/8/77 24/7/81 84/124/21 89/119/29
f 30/12/79 29/11/82 83/125/17 87/121/27
f 26/4/80 25/3/83 82/126/13 85/123/25
f 24/7/81 32/20/74 90/118/22 84/124/21
f 29/11/82 28/16/76 88/120/18 83/125/17
f 25/3/83 23/18/78 86/122/14 82/126/13
