# Blender 5.2.1 LTS
# www.blender.org
mtllib Coin.mtl
o Cylinder
v 0.000000 -0.115126 0.000000
v 0.000000 0.115126 0.000000
v 0.000000 -0.115126 -1.032443
v 0.000000 0.115126 -1.032443
v 0.319043 -0.115126 -0.981912
v 0.319043 0.115126 -0.981912
v 0.606855 -0.115126 -0.835264
v 0.606855 0.115126 -0.835264
v 0.835264 -0.115126 -0.606855
v 0.835264 0.115126 -0.606855
v 0.981912 -0.115126 -0.319043
v 0.981912 0.115126 -0.319043
v 1.032443 -0.115126 0.000000
v 1.032443 0.115126 0.000000
v 0.981912 -0.115126 0.319043
v 0.981912 0.115126 0.319043
v 0.835264 -0.115126 0.606855
v 0.835264 0.115126 0.606855
v 0.606855 -0.115126 0.835264
v 0.606855 0.115126 0.835264
v 0.319043 -0.115126 0.981912
v 0.319043 0.115126 0.981912
v 0.000000 -0.115126 1.032443
v 0.000000 0.115126 1.032443
v -0.319043 -0.115126 0.981912
v -0.319043 0.115126 0.981912
v -0.606855 -0.115126 0.835264
v -0.606855 0.115126 0.835264
v -0.835264 -0.115126 0.606855
v -0.835264 0.115126 0.606855
v -0.981912 -0.115126 0.319043
v -0.981912 0.115126 0.319043
v -1.032443 -0.115126 0.000000
v -1.032443 0.115126 0.000000
v -0.981912 -0.115126 -0.319043
v -0.981912 0.115126 -0.319043
v -0.835264 -0.115126 -0.606855
v -0.835264 0.115126 -0.606855
v -0.606855 -0.115126 -0.835264
v -0.606855 0.115126 -0.835264
v -0.319043 -0.115126 -0.981912
v -0.319043 0.115126 -0.981912
v 0.000000 -0.115126 -0.937370
v 0.289663 -0.115126 -0.891492
v 0.289663 0.115126 -0.891492
v 0.000000 0.115126 -0.937370
v 0.550973 -0.115126 -0.758349
v 0.550973 0.115126 -0.758349
v 0.758349 -0.115126 -0.550973
v 0.758349 0.115126 -0.550973
v 0.891492 -0.115126 -0.289663
v 0.891492 0.115126 -0.289663
v 0.937370 -0.115126 0.000000
v 0.937370 0.115126 0.000000
v 0.891492 -0.115126 0.289663
v 0.891492 0.115126 0.289663
v 0.758349 -0.115126 0.550973
v 0.758349 0.115126 0.550973
v 0.550973 -0.115126 0.758349
v 0.550973 0.115126 0.758349
v 0.289663 -0.115126 0.891492
v 0.289663 0.115126 0.891492
v 0.000000 -0.115126 0.937370
v 0.000000 0.115126 0.937370
v -0.289663 -0.115126 0.891492
v -0.289663 0.115126 0.891492
v -0.550973 -0.115126 0.758349
v -0.550973 0.115126 0.758349
v -0.758349 -0.115126 0.550973
v -0.758349 0.115126 0.550973
v -0.891492 -0.115126 0.289663
v -0.891492 0.115126 0.289663
v -0.937370 -0.115126 0.000000
v -0.937370 0.115126 0.000000
v -0.891492 -0.115126 -0.289663
v -0.891492 0.115126 -0.289663
v -0.758349 -0.115126 -0.550973
v -0.758349 0.115126 -0.550973
v -0.550973 -0.115126 -0.758349
v -0.550973 0.115126 -0.758349
v -0.289663 -0.115126 -0.891492
v -0.289663 0.115126 -0.891492
v 0.000000 -0.162963 -1.000000
v 0.309017 -0.162963 -0.951057
v 0.309017 0.162963 -0.951057
v 0.000000 0.162963 -1.000000
v 0.587785 -0.162963 -0.809017
v 0.587785 0.162963 -0.809017
v 0.809017 -0.162963 -0.587785
v 0.809017 0.162963 -0.587785
v 0.951057 -0.162963 -0.309017
v 0.951057 0.162963 -0.309017
v 1.000000 -0.162963 0.000000
v 1.000000 0.162963 0.000000
v 0.951057 -0.162963 0.309017
v 0.951057 0.162963 0.309017
v 0.809017 -0.162963 0.587785
v 0.809017 0.162963 0.587785
v 0.587785 -0.162963 0.809017
v 0.587785 0.162963 0.809017
v 0.309017 -0.162963 0.951057
v 0.309017 0.162963 0.951057
v 0.000000 -0.162963 1.000000
v 0.000000 0.162963 1.000000
v -0.309017 -0.162963 0.951057
v -0.309017 0.162963 0.951057
v -0.587785 -0.162963 0.809017
v -0.587785 0.162963 0.809017
v -0.809017 -0.162963 0.587785
v -0.809017 0.162963 0.587785
v -0.951057 -0.162963 0.309017
v -0.951057 0.162963 0.309017
v -1.000000 -0.162963 0.000000
v -1.000000 0.162963 0.000000
v -0.951057 -0.162963 -0.309017
v -0.951057 0.162963 -0.309017
v -0.809017 -0.162963 -0.587785
v -0.809017 0.162963 -0.587785
v -0.587785 -0.162963 -0.809017
v -0.587785 0.162963 -0.809017
v -0.309017 -0.162963 -0.951057
v -0.309017 0.162963 -0.951057
v 0.000000 -0.162963 -0.937370
v 0.289663 -0.162963 -0.891492
v 0.289663 0.162963 -0.891492
v 0.000000 0.162963 -0.937370
v 0.550973 -0.162963 -0.758349
v 0.550973 0.162963 -0.758349
v 0.758349 -0.162963 -0.550973
v 0.758349 0.162963 -0.550973
v 0.891492 -0.162963 -0.289663
v 0.891492 0.162963 -0.289663
v 0.937370 -0.162963 0.000000
v 0.937370 0.162963 0.000000
v 0.891492 -0.162963 0.289663
v 0.891492 0.162963 0.289663
v 0.758349 -0.162963 0.550973
v 0.758349 0.162963 0.550973
v 0.550973 -0.162963 0.758349
v 0.550973 0.162963 0.758349
v 0.289663 -0.162963 0.891492
v 0.289663 0.162963 0.891492
v 0.000000 -0.162963 0.937370
v 0.000000 0.162963 0.937370
v -0.289663 -0.162963 0.891492
v -0.289663 0.162963 0.891492
v -0.550973 -0.162963 0.758349
v -0.550973 0.162963 0.758349
v -0.758349 -0.162963 0.550973
v -0.758349 0.162963 0.550973
v -0.891492 -0.162963 0.289663
v -0.891492 0.162963 0.289663
v -0.937370 -0.162963 0.000000
v -0.937370 0.162963 0.000000
v -0.891492 -0.162963 -0.289663
v -0.891492 0.162963 -0.289663
v -0.758349 -0.162963 -0.550973
v -0.758349 0.162963 -0.550973
v -0.550973 -0.162963 -0.758349
v -0.550973 0.162963 -0.758349
v -0.289663 -0.162963 -0.891492
v -0.289663 0.162963 -0.891492
vn -0.0000 -1.0000 -0.0000
vn -0.0000 1.0000 -0.0000
vn -0.0000 -0.0000 -1.0000
vn 0.3090 -0.0000 -0.9511
vn 0.5878 -0.0000 -0.8090
vn 0.8090 -0.0000 -0.5878
vn 0.9511 -0.0000 -0.3090
vn 1.0000 -0.0000 -0.0000
vn 0.9511 -0.0000 0.3090
vn 0.8090 -0.0000 0.5878
vn 0.5878 -0.0000 0.8090
vn 0.3090 -0.0000 0.9511
vn -0.0000 -0.0000 1.0000
vn -0.3090 -0.0000 0.9511
vn -0.5878 -0.0000 0.8090
vn -0.8090 -0.0000 0.5878
vn -0.9511 -0.0000 0.3090
vn -1.0000 -0.0000 -0.0000
vn -0.9511 -0.0000 -0.3090
vn -0.8090 -0.0000 -0.5878
vn -0.5878 -0.0000 -0.8090
vn -0.3090 -0.0000 -0.9511
vn -0.8276 -0.5613 -0.0000
vn -0.7871 -0.5613 -0.2557
vn 0.8276 0.5613 -0.0000
vn 0.7871 0.5613 -0.2557
vn -0.0000 0.5613 0.8276
vn 0.2557 0.5613 0.7871
vn 0.7871 -0.5613 -0.2557
vn 0.8276 -0.5613 -0.0000
vn -0.8276 0.5613 -0.0000
vn -0.7871 0.5613 0.2557
vn 0.2557 -0.5613 0.7871
vn -0.0000 -0.5613 0.8276
vn -0.7871 -0.5613 0.2557
vn 0.6696 0.5613 -0.4865
vn -0.0000 0.5613 -0.8276
vn -0.2557 0.5613 -0.7871
vn 0.4865 0.5613 0.6696
vn -0.2557 -0.5613 -0.7871
vn -0.0000 -0.5613 -0.8276
vn 0.6696 -0.5613 -0.4865
vn -0.6696 0.5613 0.4865
vn 0.4865 -0.5613 0.6696
vn -0.4865 0.5613 -0.6696
vn -0.6696 -0.5613 0.4865
vn 0.4865 0.5613 -0.6696
vn -0.4865 -0.5613 -0.6696
vn 0.6696 0.5613 0.4865
vn 0.4865 -0.5613 -0.6696
vn -0.2557 -0.5613 0.7871
vn 0.2557 -0.5613 -0.7871
vn -0.7871 0.5613 -0.2557
vn 0.7871 -0.5613 0.2557
vn -0.2557 0.5613 0.7871
vn 0.7871 0.5613 0.2557
vn 0.2557 0.5613 -0.7871
vn -0.6696 -0.5613 -0.4865
vn -0.4865 -0.5613 0.6696
vn -0.6696 0.5613 -0.4865
vn 0.6696 -0.5613 0.4865
vn -0.4865 0.5613 0.6696
vt 0.750000 0.250000
vt 0.750000 0.474969
vt 0.819519 0.463958
vt 0.250000 0.250000
vt 0.319519 0.463958
vt 0.250000 0.474969
vt 0.500000 0.865609
vt 0.500000 0.901058
vt 0.450384 0.901058
vt 0.450384 0.865609
vt 0.882233 0.432004
vt 0.382233 0.432004
vt 0.400768 0.901058
vt 0.400768 0.865609
vt 0.932004 0.382233
vt 0.432004 0.382233
vt 0.351152 0.901058
vt 0.351152 0.865609
vt 0.963958 0.319519
vt 0.463958 0.319519
vt 0.301536 0.901058
vt 0.301536 0.865609
vt 0.974969 0.250000
vt 0.474969 0.250000
vt 0.251921 0.901058
vt 0.251921 0.865609
vt 0.963958 0.180481
vt 0.463958 0.180481
vt 0.202305 0.901058
vt 0.202305 0.865609
vt 0.932004 0.117767
vt 0.432004 0.117767
vt 0.152689 0.901058
vt 0.152689 0.865609
vt 0.882233 0.067996
vt 0.382233 0.067996
vt 0.103073 0.901058
vt 0.103073 0.865609
vt 0.819519 0.036042
vt 0.319519 0.036042
vt 0.053457 0.901058
vt 0.053457 0.865609
vt 0.750000 0.025031
vt 0.250000 0.025031
vt 0.003841 0.901058
vt 0.003841 0.865609
vt 0.680481 0.036042
vt 0.180481 0.036042
vt 0.996159 0.865609
vt 0.996159 0.901058
vt 0.946543 0.901058
vt 0.946543 0.865609
vt 0.617767 0.067996
vt 0.117767 0.067996
vt 0.896927 0.901058
vt 0.896927 0.865609
vt 0.567996 0.117767
vt 0.067996 0.117767
vt 0.847311 0.901058
vt 0.847311 0.865609
vt 0.536042 0.180481
vt 0.036042 0.180481
vt 0.797696 0.901058
vt 0.797696 0.865609
vt 0.525031 0.250000
vt 0.025031 0.250000
vt 0.748079 0.901058
vt 0.748079 0.865609
vt 0.536042 0.319519
vt 0.036042 0.319519
vt 0.698464 0.901058
vt 0.698464 0.865609
vt 0.567996 0.382233
vt 0.067996 0.382233
vt 0.648848 0.901058
vt 0.648848 0.865609
vt 0.617767 0.432004
vt 0.117767 0.432004
vt 0.599232 0.901058
vt 0.599232 0.865609
vt 0.680481 0.463958
vt 0.180481 0.463958
vt 0.549616 0.901058
vt 0.549616 0.865609
vt 0.645042 0.845250
vt 0.693390 0.845250
vt 0.693390 0.836839
vt 0.645042 0.836839
vt 0.737329 0.938539
vt 0.689864 0.938539
vt 0.689864 0.927889
vt 0.737329 0.927889
vt 0.403305 0.818084
vt 0.354957 0.818084
vt 0.354957 0.826495
vt 0.403305 0.826495
vt 0.741737 0.818084
vt 0.693390 0.818084
vt 0.693390 0.826495
vt 0.741737 0.826495
vt 0.262671 0.949802
vt 0.310136 0.949802
vt 0.310136 0.960452
vt 0.262671 0.960452
vt 0.354957 0.845250
vt 0.403305 0.845250
vt 0.403305 0.836839
vt 0.354957 0.836839
vt 0.741737 0.845250
vt 0.741737 0.836839
vt 0.025341 0.949802
vt 0.072807 0.949802
vt 0.072807 0.960452
vt 0.025341 0.960452
vt 0.451652 0.818084
vt 0.451652 0.826495
vt 0.790085 0.818084
vt 0.790085 0.826495
vt 0.310136 0.938539
vt 0.262671 0.938539
vt 0.262671 0.927889
vt 0.310136 0.927889
vt 0.737329 0.949802
vt 0.784795 0.949802
vt 0.784795 0.960452
vt 0.737329 0.960452
vt 0.451652 0.845250
vt 0.451652 0.836839
vt 0.790085 0.845250
vt 0.790085 0.836839
vt 0.072807 0.938539
vt 0.025341 0.938539
vt 0.025341 0.927889
vt 0.072807 0.927889
vt 0.500000 0.818084
vt 0.500000 0.826495
vt 0.838432 0.818084
vt 0.838432 0.826495
vt 0.784795 0.938539
vt 0.784795 0.927889
vt 0.500000 0.845250
vt 0.500000 0.836839
vt 0.838432 0.845250
vt 0.838432 0.836839
vt 0.357602 0.949802
vt 0.357602 0.960452
vt 0.500000 0.949802
vt 0.547466 0.949802
vt 0.547466 0.960452
vt 0.500000 0.960452
vt 0.886780 0.818084
vt 0.886780 0.826495
vt 0.120273 0.949802
vt 0.120273 0.960452
vt 0.547466 0.938539
vt 0.500000 0.938539
vt 0.500000 0.927889
vt 0.547466 0.927889
vt 0.886780 0.845250
vt 0.886780 0.836839
vt 0.357602 0.938539
vt 0.357602 0.927889
vt 0.832261 0.949802
vt 0.832261 0.960452
vt 0.935127 0.818084
vt 0.935127 0.826495
vt 0.120273 0.938539
vt 0.120273 0.927889
vt 0.594932 0.949802
vt 0.594932 0.960452
vt 0.935127 0.845250
vt 0.935127 0.836839
vt 0.832261 0.938539
vt 0.832261 0.927889
vt 0.983475 0.818084
vt 0.983475 0.826495
vt 0.405068 0.949802
vt 0.405068 0.960452
vt 0.594932 0.938539
vt 0.594932 0.927889
vt 0.983475 0.845250
vt 0.983475 0.836839
vt 0.167739 0.949802
vt 0.167739 0.960452
vt 0.064873 0.818084
vt 0.016525 0.818084
vt 0.016525 0.826495
vt 0.064873 0.826495
vt 0.405068 0.938539
vt 0.405068 0.927889
vt 0.750000 0.490000
vt 0.824164 0.478254
vt 0.324164 0.478254
vt 0.250000 0.490000
vt 0.891068 0.444164
vt 0.391068 0.444164
vt 0.944164 0.391068
vt 0.444164 0.391068
vt 0.978254 0.324164
vt 0.478254 0.324164
vt 0.990000 0.250000
vt 0.490000 0.250000
vt 0.978254 0.175836
vt 0.478254 0.175836
vt 0.944164 0.108932
vt 0.444164 0.108932
vt 0.891068 0.055836
vt 0.391068 0.055836
vt 0.824164 0.021746
vt 0.324164 0.021746
vt 0.750000 0.010000
vt 0.250000 0.010000
vt 0.675836 0.021746
vt 0.175836 0.021746
vt 0.608932 0.055836
vt 0.108932 0.055836
vt 0.555836 0.108932
vt 0.055836 0.108932
vt 0.521746 0.175836
vt 0.021746 0.175836
vt 0.510000 0.250000
vt 0.010000 0.250000
vt 0.521746 0.324164
vt 0.021746 0.324164
vt 0.555836 0.391068
vt 0.055836 0.391068
vt 0.608932 0.444164
vt 0.108932 0.444164
vt 0.675836 0.478254
vt 0.175836 0.478254
vt 0.306610 0.845250
vt 0.306610 0.836839
vt 0.974659 0.938539
vt 0.927193 0.938539
vt 0.927193 0.927889
vt 0.974659 0.927889
vt 0.645042 0.818084
vt 0.645042 0.826495
vt 0.452534 0.938539
vt 0.452534 0.927889
vt 0.306610 0.818084
vt 0.306610 0.826495
vt 0.689864 0.949802
vt 0.689864 0.960452
vt 0.215205 0.938539
vt 0.215205 0.927889
vt 0.596695 0.845250
vt 0.596695 0.836839
vt 0.258263 0.845250
vt 0.258263 0.836839
vt 0.927193 0.949802
vt 0.974659 0.949802
vt 0.974659 0.960452
vt 0.927193 0.960452
vt 0.596695 0.818084
vt 0.596695 0.826495
vt 0.258263 0.818084
vt 0.258263 0.826495
vt 0.215205 0.949802
vt 0.215205 0.960452
vt 0.548348 0.845250
vt 0.548348 0.836839
vt 0.452534 0.949802
vt 0.452534 0.960452
vt 0.209915 0.845250
vt 0.209915 0.836839
vt 0.642398 0.938539
vt 0.642398 0.927889
vt 0.548348 0.818084
vt 0.548348 0.826495
vt 0.209915 0.818084
vt 0.209915 0.826495
vt 0.879727 0.938539
vt 0.879727 0.927889
vt 0.161567 0.845250
vt 0.161567 0.836839
vt 0.642398 0.949802
vt 0.642398 0.960452
vt 0.167739 0.938539
vt 0.167739 0.927889
vt 0.161567 0.818084
vt 0.161567 0.826495
vt 0.879727 0.949802
vt 0.879727 0.960452
vt 0.113220 0.845250
vt 0.113220 0.836839
vt 0.113220 0.818084
vt 0.113220 0.826495
vt 0.064873 0.845250
vt 0.064873 0.836839
vt 0.016525 0.845250
vt 0.016525 0.836839
s 0
usemtl Material.001
f 1/1/1 43/2/1 44/3/1
f 2/4/2 45/5/2 46/6/2
s 1
f 3/7/3 4/8/3 6/9/4 5/10/4
s 0
f 1/1/1 44/3/1 47/11/1
f 2/4/2 48/12/2 45/5/2
s 1
f 5/10/4 6/9/4 8/13/5 7/14/5
s 0
f 1/1/1 47/11/1 49/15/1
f 2/4/2 50/16/2 48/12/2
s 1
f 7/14/5 8/13/5 10/17/6 9/18/6
s 0
f 1/1/1 49/15/1 51/19/1
f 2/4/2 52/20/2 50/16/2
s 1
f 9/18/6 10/17/6 12/21/7 11/22/7
s 0
f 1/1/1 51/19/1 53/23/1
f 2/4/2 54/24/2 52/20/2
s 1
f 11/22/7 12/21/7 14/25/8 13/26/8
s 0
f 1/1/1 53/23/1 55/27/1
f 2/4/2 56/28/2 54/24/2
s 1
f 13/26/8 14/25/8 16/29/9 15/30/9
s 0
f 1/1/1 55/27/1 57/31/1
f 2/4/2 58/32/2 56/28/2
s 1
f 15/30/9 16/29/9 18/33/10 17/34/10
s 0
f 1/1/1 57/31/1 59/35/1
f 2/4/2 60/36/2 58/32/2
s 1
f 17/34/10 18/33/10 20/37/11 19/38/11
s 0
f 1/1/1 59/35/1 61/39/1
f 2/4/2 62/40/2 60/36/2
s 1
f 19/38/11 20/37/11 22/41/12 21/42/12
s 0
f 1/1/1 61/39/1 63/43/1
f 2/4/2 64/44/2 62/40/2
s 1
f 21/42/12 22/41/12 24/45/13 23/46/13
s 0
f 1/1/1 63/43/1 65/47/1
f 2/4/2 66/48/2 64/44/2
s 1
f 23/49/13 24/50/13 26/51/14 25/52/14
s 0
f 1/1/1 65/47/1 67/53/1
f 2/4/2 68/54/2 66/48/2
s 1
f 25/52/14 26/51/14 28/55/15 27/56/15
s 0
f 1/1/1 67/53/1 69/57/1
f 2/4/2 70/58/2 68/54/2
s 1
f 27/56/15 28/55/15 30/59/16 29/60/16
s 0
f 1/1/1 69/57/1 71/61/1
f 2/4/2 72/62/2 70/58/2
s 1
f 29/60/16 30/59/16 32/63/17 31/64/17
s 0
f 1/1/1 71/61/1 73/65/1
f 2/4/2 74/66/2 72/62/2
s 1
f 31/64/17 32/63/17 34/67/18 33/68/18
s 0
f 1/1/1 73/65/1 75/69/1
f 2/4/2 76/70/2 74/66/2
s 1
f 33/68/18 34/67/18 36/71/19 35/72/19
s 0
f 1/1/1 75/69/1 77/73/1
f 2/4/2 78/74/2 76/70/2
s 1
f 35/72/19 36/71/19 38/75/20 37/76/20
s 0
f 1/1/1 77/73/1 79/77/1
f 2/4/2 80/78/2 78/74/2
s 1
f 37/76/20 38/75/20 40/79/21 39/80/21
s 0
f 1/1/1 79/77/1 81/81/1
f 2/4/2 82/82/2 80/78/2
s 1
f 39/80/21 40/79/21 42/83/22 41/84/22
s 0
f 1/1/1 81/81/1 43/2/1
f 2/4/2 46/6/2 82/82/2
s 1
f 41/84/22 42/83/22 4/8/3 3/7/3
f 77/85/10 75/86/9 155/87/9 157/88/10
f 33/89/23 35/90/24 115/91/24 113/92/23
f 48/93/15 50/94/16 130/95/16 128/96/15
f 74/97/8 76/98/9 156/99/9 154/100/8
f 14/101/25 12/102/26 92/103/26 94/104/25
f 49/105/16 47/106/15 127/107/15 129/108/16
f 75/86/9 73/109/8 153/110/8 155/87/9
f 24/111/27 22/112/28 102/113/28 104/114/27
f 45/115/14 48/93/15 128/96/15 125/116/14
f 72/117/7 74/97/8 154/100/8 152/118/7
f 11/119/29 13/120/30 93/121/30 91/122/29
f 34/123/31 32/124/32 112/125/32 114/126/31
f 47/106/15 44/127/14 124/128/14 127/107/15
f 73/109/8 71/129/7 151/130/7 153/110/8
f 21/131/33 23/132/34 103/133/34 101/134/33
f 46/135/13 45/115/14 125/116/14 126/136/13
f 70/137/6 72/117/7 152/118/7 150/138/6
f 31/139/35 33/89/23 113/92/23 111/140/35
f 44/127/14 43/141/13 123/142/13 124/128/14
f 71/129/7 69/143/6 149/144/6 151/130/7
f 12/102/26 10/145/36 90/146/36 92/103/26
f 4/147/37 42/148/38 122/149/38 86/150/37
f 68/151/5 70/137/6 150/138/6 148/152/5
f 22/112/28 20/153/39 100/154/39 102/113/28
f 41/155/40 3/156/41 83/157/41 121/158/40
f 69/143/6 67/159/5 147/160/5 149/144/6
f 9/161/42 11/119/29 91/122/29 89/162/42
f 32/124/32 30/163/43 110/164/43 112/125/32
f 66/165/4 68/151/5 148/152/5 146/166/4
f 19/167/44 21/131/33 101/134/33 99/168/44
f 42/148/38 40/169/45 120/170/45 122/149/38
f 67/159/5 65/171/4 145/172/4 147/160/5
f 29/173/46 31/139/35 111/140/35 109/174/46
f 64/175/3 66/165/4 146/166/4 144/176/3
f 10/145/36 8/177/47 88/178/47 90/146/36
f 39/179/48 41/155/40 121/158/40 119/180/48
f 65/171/4 63/181/3 143/182/3 145/172/4
f 20/153/39 18/183/49 98/184/49 100/154/39
f 62/185/22 64/186/3 144/187/3 142/188/22
f 7/189/50 9/161/42 89/162/42 87/190/50
s 0
f 124/3/1 123/2/1 83/191/1 84/192/1
f 126/6/2 125/5/2 85/193/2 86/194/2
f 127/11/1 124/3/1 84/192/1 87/195/1
f 125/5/2 128/12/2 88/196/2 85/193/2
f 129/15/1 127/11/1 87/195/1 89/197/1
f 128/12/2 130/16/2 90/198/2 88/196/2
f 131/19/1 129/15/1 89/197/1 91/199/1
f 130/16/2 132/20/2 92/200/2 90/198/2
f 133/23/1 131/19/1 91/199/1 93/201/1
f 132/20/2 134/24/2 94/202/2 92/200/2
f 135/27/1 133/23/1 93/201/1 95/203/1
f 134/24/2 136/28/2 96/204/2 94/202/2
f 137/31/1 135/27/1 95/203/1 97/205/1
f 136/28/2 138/32/2 98/206/2 96/204/2
f 139/35/1 137/31/1 97/205/1 99/207/1
f 138/32/2 140/36/2 100/208/2 98/206/2
f 141/39/1 139/35/1 99/207/1 101/209/1
f 140/36/2 142/40/2 102/210/2 100/208/2
f 143/43/1 141/39/1 101/209/1 103/211/1
f 142/40/2 144/44/2 104/212/2 102/210/2
f 145/47/1 143/43/1 103/211/1 105/213/1
f 144/44/2 146/48/2 106/214/2 104/212/2
f 147/53/1 145/47/1 105/213/1 107/215/1
f 146/48/2 148/54/2 108/216/2 106/214/2
f 149/57/1 147/53/1 107/215/1 109/217/1
f 148/54/2 150/58/2 110/218/2 108/216/2
f 151/61/1 149/57/1 109/217/1 111/219/1
f 150/58/2 152/62/2 112/220/2 110/218/2
f 153/65/1 151/61/1 111/219/1 113/221/1
f 152/62/2 154/66/2 114/222/2 112/220/2
f 155/69/1 153/65/1 113/221/1 115/223/1
f 154/66/2 156/70/2 116/224/2 114/222/2
f 157/73/1 155/69/1 115/223/1 117/225/1
f 156/70/2 158/74/2 118/226/2 116/224/2
f 159/77/1 157/73/1 117/225/1 119/227/1
f 158/74/2 160/78/2 120/228/2 118/226/2
f 161/81/1 159/77/1 119/227/1 121/229/1
f 160/78/2 162/82/2 122/230/2 120/228/2
f 123/2/1 161/81/1 121/229/1 83/191/1
f 162/82/2 126/6/2 86/194/2 122/230/2
s 1
f 51/231/17 49/105/16 129/108/16 131/232/17
f 23/233/34 25/234/51 105/235/51 103/236/34
f 76/98/9 78/237/10 158/238/10 156/99/9
f 3/156/41 5/239/52 84/240/52 83/157/41
f 50/94/16 52/241/17 132/242/17 130/95/16
f 36/243/53 34/123/31 114/126/31 116/244/53
f 13/120/30 15/245/54 95/246/54 93/121/30
f 79/247/11 77/85/10 157/88/10 159/248/11
f 53/249/18 51/231/17 131/232/17 133/250/18
f 26/251/55 24/252/27 104/253/27 106/254/55
f 78/237/10 80/255/11 160/256/11 158/238/10
f 52/241/17 54/257/18 134/258/18 132/242/17
f 16/259/56 14/101/25 94/104/25 96/260/56
f 81/261/12 79/247/11 159/248/11 161/262/12
f 6/263/57 4/147/37 86/150/37 85/264/57
f 55/265/19 53/249/18 133/250/18 135/266/19
f 35/90/24 37/267/58 117/268/58 115/91/24
f 80/255/11 82/269/12 162/270/12 160/256/11
f 54/257/18 56/271/19 136/272/19 134/258/18
f 25/234/51 27/273/59 107/274/59 105/235/51
f 43/141/13 81/261/12 161/262/12 123/142/13
f 57/275/20 55/265/19 135/266/19 137/276/20
f 38/277/60 36/243/53 116/244/53 118/278/60
f 15/245/54 17/279/61 97/280/61 95/246/54
f 82/269/12 46/135/13 126/136/13 162/270/12
f 56/271/19 58/281/20 138/282/20 136/272/19
f 28/283/62 26/251/55 106/254/55 108/284/62
f 5/239/52 7/189/50 87/190/50 84/240/52
f 59/285/21 57/275/20 137/276/20 139/286/21
f 18/183/49 16/259/56 96/260/56 98/184/49
f 58/281/20 60/287/21 140/288/21 138/282/20
f 37/267/58 39/179/48 119/180/48 117/268/58
f 8/177/47 6/263/57 85/264/57 88/178/47
f 61/289/22 59/285/21 139/286/21 141/290/22
f 27/273/59 29/173/46 109/174/46 107/274/59
f 60/287/21 62/185/22 142/188/22 140/288/21
f 40/169/45 38/277/60 118/278/60 120/170/45
f 17/279/61 19/167/44 99/168/44 97/280/61
f 63/291/3 61/289/22 141/290/22 143/292/3
f 30/163/43 28/283/62 108/284/62 110/164/43
