# Blender 5.2.1 LTS
# www.blender.org
mtllib Paper Plate.mtl
o Cylinder.001
v 0.563633 -0.182731 -0.997766
v 0.239439 -0.120501 -1.200999
v 0.239439 -0.042167 -1.200999
v 0.610568 -0.120501 -1.142218
v 0.610568 -0.042167 -1.142218
v 0.945368 -0.120501 -0.971628
v 0.945368 -0.042167 -0.971628
v 1.211067 -0.120501 -0.705929
v 1.211067 -0.042167 -0.705929
v 1.381657 -0.120501 -0.371129
v 1.381657 -0.042167 -0.371129
v 1.440437 -0.120501 0.000000
v 1.440437 -0.042167 0.000000
v 1.381657 -0.120501 0.371129
v 1.381657 -0.042167 0.371129
v 1.211067 -0.120501 0.705929
v 1.211067 -0.042167 0.705929
v 0.945368 -0.120501 0.971628
v 0.945368 -0.042167 0.971628
v 0.610568 -0.120501 1.142218
v 0.610568 -0.042167 1.142218
v 0.239439 -0.120501 1.200999
v 0.239439 -0.042167 1.200999
v -0.131690 -0.120501 1.142218
v -0.131690 -0.042167 1.142218
v -0.466490 -0.120501 0.971628
v -0.466490 -0.042167 0.971628
v -0.732189 -0.120501 0.705929
v -0.732189 -0.042167 0.705929
v -0.902779 -0.120501 0.371129
v -0.902779 -0.042167 0.371129
v -0.961560 -0.120501 0.000000
v -0.961560 -0.042167 0.000000
v -0.902779 -0.120501 -0.371129
v -0.902779 -0.042167 -0.371129
v -0.732189 -0.120501 -0.705929
v -0.732189 -0.042167 -0.705929
v -0.466490 -0.120501 -0.971628
v -0.466490 -0.042167 -0.971628
v -0.131690 -0.120501 -1.142218
v -0.131690 -0.042167 -1.142218
v 0.239439 -0.120501 -1.153382
v 0.595854 -0.120501 -1.096932
v 0.583970 -0.042167 -1.060359
v 0.239439 -0.042167 -1.114928
v 0.917380 -0.120501 -0.933106
v 0.894777 -0.042167 -0.901995
v 1.172545 -0.120501 -0.677941
v 1.141434 -0.042167 -0.655338
v 1.336371 -0.120501 -0.356415
v 1.299798 -0.042167 -0.344532
v 1.392821 -0.120501 -0.000000
v 1.354366 -0.042167 -0.000000
v 1.336371 -0.120501 0.356415
v 1.299798 -0.042167 0.344532
v 1.172545 -0.120501 0.677941
v 1.141434 -0.042167 0.655338
v 0.917380 -0.120501 0.933106
v 0.894777 -0.042167 0.901995
v 0.595854 -0.120501 1.096932
v 0.583970 -0.042167 1.060359
v 0.239439 -0.120501 1.153382
v 0.239439 -0.042167 1.114928
v -0.116976 -0.120501 1.096932
v -0.105093 -0.042167 1.060359
v -0.438502 -0.120501 0.933106
v -0.415899 -0.042167 0.901995
v -0.693667 -0.120501 0.677941
v -0.662556 -0.042167 0.655338
v -0.857493 -0.120501 0.356415
v -0.820920 -0.042167 0.344532
v -0.913943 -0.120501 -0.000000
v -0.875489 -0.042167 -0.000000
v -0.857493 -0.120501 -0.356415
v -0.820920 -0.042167 -0.344532
v -0.693667 -0.120501 -0.677941
v -0.662556 -0.042167 -0.655338
v -0.438502 -0.120501 -0.933106
v -0.415899 -0.042167 -0.901995
v -0.116976 -0.120501 -1.096932
v -0.105093 -0.042167 -1.060359
v 0.239439 -0.091735 -1.049113
v 0.239439 -0.091735 0.000000
v 0.563633 -0.091735 -0.997766
v 0.856092 -0.091735 -0.848751
v 1.088190 -0.091735 -0.616653
v 1.237205 -0.091735 -0.324194
v 1.288552 -0.091735 0.000000
v 1.237205 -0.091735 0.324194
v 1.088190 -0.091735 0.616653
v 0.856092 -0.091735 0.848751
v 0.563633 -0.091735 0.997766
v 0.239439 -0.091735 1.049113
v -0.084755 -0.091735 0.997766
v -0.377214 -0.091735 0.848751
v -0.609312 -0.091735 0.616653
v -0.758327 -0.091735 0.324194
v -0.809675 -0.091735 0.000000
v -0.758327 -0.091735 -0.324194
v -0.609312 -0.091735 -0.616653
v -0.377214 -0.091735 -0.848751
v -0.084755 -0.091735 -0.997766
v 0.239439 -0.182731 0.000000
v 0.239439 -0.182731 -1.049113
v 0.856092 -0.182731 -0.848751
v 1.088190 -0.182731 -0.616653
v 1.237205 -0.182731 -0.324194
v 1.288552 -0.182731 0.000000
v 1.237205 -0.182731 0.324194
v 1.088190 -0.182731 0.616653
v 0.856092 -0.182731 0.848751
v 0.563633 -0.182731 0.997766
v 0.239439 -0.182731 1.049113
v -0.084755 -0.182731 0.997766
v -0.377214 -0.182731 0.848751
v -0.609312 -0.182731 0.616653
v -0.758327 -0.182731 0.324194
v -0.809675 -0.182731 0.000000
v -0.758327 -0.182731 -0.324194
v -0.609312 -0.182731 -0.616653
v -0.377214 -0.182731 -0.848751
v -0.084755 -0.182731 -0.997766
vn -0.0000 -0.8587 0.5125
vn -0.1584 -0.8587 0.4874
vn -0.4867 0.7988 -0.3536
vn -0.5722 0.7988 -0.1859
vn -0.0000 -0.0000 -1.0000
vn 0.3090 -0.0000 -0.9511
vn 0.4874 -0.8587 0.1584
vn 0.4146 -0.8587 0.3012
vn 0.3536 0.7988 0.4867
vn 0.4867 0.7988 0.3536
vn 0.5878 -0.0000 -0.8090
vn -0.4146 -0.8587 -0.3012
vn -0.3012 -0.8587 -0.4146
vn -0.4867 0.7988 0.3536
vn -0.3536 0.7988 0.4867
vn 0.8090 -0.0000 -0.5878
vn 0.3012 -0.8587 -0.4146
vn 0.4146 -0.8587 -0.3012
vn 0.5722 0.7988 -0.1859
vn 0.4867 0.7988 -0.3536
vn 0.9511 -0.0000 -0.3090
vn -0.4146 -0.8587 0.3012
vn -0.4874 -0.8587 0.1584
vn -0.0000 0.7988 -0.6016
vn -0.1859 0.7988 -0.5722
vn 1.0000 -0.0000 -0.0000
vn 0.1584 -0.8587 0.4874
vn -0.6016 0.7988 -0.0000
vn 0.9511 -0.0000 0.3090
vn 0.5125 -0.8587 -0.0000
vn 0.5722 0.7988 0.1859
vn 0.8090 -0.0000 0.5878
vn -0.4874 -0.8587 -0.1584
vn -0.1859 0.7988 0.5722
vn 0.5878 -0.0000 0.8090
vn 0.1584 -0.8587 -0.4874
vn 0.3536 0.7988 -0.4867
vn 0.3090 -0.0000 0.9511
vn -0.3012 -0.8587 0.4146
vn -0.3536 0.7988 -0.4867
vn -0.0000 -0.0000 1.0000
vn 0.3012 -0.8587 0.4146
vn -0.0000 0.7988 0.6016
vn 0.1859 0.7988 0.5722
vn -0.3090 -0.0000 0.9511
vn -0.1584 -0.8587 -0.4874
vn -0.0000 -0.8587 -0.5125
vn -0.5722 0.7988 0.1859
vn -0.5878 -0.0000 0.8090
vn 0.4874 -0.8587 -0.1584
vn 0.6016 0.7988 -0.0000
vn -0.8090 -0.0000 0.5878
vn -0.5125 -0.8587 -0.0000
vn -0.9511 -0.0000 0.3090
vn 0.1859 0.7988 -0.5722
vn -1.0000 -0.0000 -0.0000
vn -0.9511 -0.0000 -0.3090
vn -0.8090 -0.0000 -0.5878
vn -0.5878 -0.0000 -0.8090
vn -0.3090 -0.0000 -0.9511
vn -0.0000 -1.0000 -0.0000
vn -0.0000 1.0000 -0.0000
vt 0.801186 0.972735
vt 0.744720 0.963792
vt 0.749825 0.948081
vt 0.801186 0.956216
vt 0.635643 0.211847
vt 0.682677 0.304155
vt 0.664087 0.310195
vt 0.619830 0.223336
vt 0.500000 0.007240
vt 0.500000 0.019427
vt 0.451813 0.019427
vt 0.451813 0.007240
vt 0.974971 0.846473
vt 0.949016 0.897412
vt 0.935652 0.887702
vt 0.959260 0.841368
vt 0.173122 0.674368
vt 0.099866 0.601112
vt 0.115680 0.589623
vt 0.184612 0.658555
vt 0.403626 0.019427
vt 0.403626 0.007240
vt 0.653356 0.682602
vt 0.693781 0.642177
vt 0.703491 0.655541
vt 0.666721 0.692312
vt 0.635643 0.601112
vt 0.562387 0.674368
vt 0.550898 0.658555
vt 0.619830 0.589623
vt 0.355440 0.019427
vt 0.355440 0.007240
vt 0.908591 0.642177
vt 0.949016 0.682602
vt 0.935652 0.692312
vt 0.898881 0.655541
vt 0.052833 0.304155
vt 0.099866 0.211847
vt 0.115680 0.223336
vt 0.071423 0.310195
vt 0.307253 0.019427
vt 0.307253 0.007240
vt 0.653356 0.897412
vt 0.627402 0.846473
vt 0.643112 0.841368
vt 0.666721 0.887702
vt 0.367755 0.075351
vt 0.470079 0.091557
vt 0.464039 0.110147
vt 0.367755 0.094897
vt 0.259066 0.019427
vt 0.259066 0.007240
vt 0.857652 0.963792
vt 0.852548 0.948081
vt 0.698883 0.406479
vt 0.679337 0.406479
vt 0.210879 0.019427
vt 0.210879 0.007240
vt 0.983914 0.790007
vt 0.967395 0.790007
vt 0.052833 0.508804
vt 0.071423 0.502764
vt 0.162693 0.019427
vt 0.162693 0.007240
vt 0.627402 0.733541
vt 0.643112 0.738646
vt 0.470079 0.721401
vt 0.464039 0.702811
vt 0.114506 0.019427
vt 0.114506 0.007240
vt 0.857652 0.616222
vt 0.852548 0.631933
vt 0.173122 0.138591
vt 0.184612 0.154404
vt 0.066319 0.019427
vt 0.066319 0.007240
vt 0.693781 0.937837
vt 0.703491 0.924473
vt 0.562387 0.138591
vt 0.550898 0.154404
vt 0.018132 0.019427
vt 0.018132 0.007240
vt 0.908591 0.937837
vt 0.898881 0.924473
vt 0.367755 0.737608
vt 0.265430 0.721401
vt 0.271471 0.702811
vt 0.367755 0.718061
vt 0.981868 0.007240
vt 0.981868 0.019427
vt 0.933681 0.019427
vt 0.933681 0.007240
vt 0.744720 0.616222
vt 0.801186 0.607279
vt 0.801186 0.623798
vt 0.749825 0.631933
vt 0.682677 0.508804
vt 0.664087 0.502764
vt 0.885494 0.019427
vt 0.885494 0.007240
vt 0.974971 0.733541
vt 0.959260 0.738646
vt 0.036626 0.406479
vt 0.056173 0.406479
vt 0.837307 0.019427
vt 0.837307 0.007240
vt 0.618458 0.790007
vt 0.634977 0.790007
vt 0.789121 0.019427
vt 0.789121 0.007240
vt 0.265430 0.091557
vt 0.271471 0.110147
vt 0.740934 0.019427
vt 0.740934 0.007240
vt 0.692747 0.019427
vt 0.692747 0.007240
vt 0.644560 0.019427
vt 0.644560 0.007240
vt 0.596374 0.019427
vt 0.596374 0.007240
vt 0.548187 0.019427
vt 0.548187 0.007240
vt 0.801186 0.599735
vt 0.859984 0.609048
vt 0.477978 0.745713
vt 0.367755 0.763170
vt 0.913025 0.636074
vt 0.577413 0.695049
vt 0.955119 0.678168
vt 0.656324 0.616137
vt 0.982146 0.731210
vt 0.706988 0.516703
vt 0.991458 0.790007
vt 0.724446 0.406479
vt 0.982146 0.848804
vt 0.706988 0.296256
vt 0.955119 0.901846
vt 0.656324 0.196822
vt 0.913025 0.943940
vt 0.577413 0.117910
vt 0.859984 0.970966
vt 0.477978 0.067246
vt 0.801186 0.980279
vt 0.367755 0.049788
vt 0.742389 0.970966
vt 0.257531 0.067246
vt 0.689347 0.943940
vt 0.158097 0.117910
vt 0.647253 0.901846
vt 0.079186 0.196822
vt 0.620227 0.848804
vt 0.028521 0.296256
vt 0.610915 0.790007
vt 0.011064 0.406479
vt 0.620227 0.731210
vt 0.028521 0.516703
vt 0.647253 0.678168
vt 0.079186 0.616137
vt 0.689347 0.636074
vt 0.158097 0.695049
vt 0.742389 0.609048
vt 0.257531 0.745713
vt 0.367755 0.406479
vt 0.801186 0.790007
s 1
usemtl Material
f 62/1/1 64/2/2 114/3/2 113/4/1
f 57/5/3 55/6/4 89/7/4 90/8/3
f 2/9/5 3/10/5 5/11/6 4/12/6
f 54/13/7 56/14/8 110/15/8 109/16/7
f 79/17/9 77/18/10 100/19/10 101/20/9
f 4/12/6 5/11/6 7/21/11 6/22/11
f 76/23/12 78/24/13 121/25/13 120/26/12
f 49/27/14 47/28/15 85/29/15 86/30/14
f 6/22/11 7/21/11 9/31/16 8/32/16
f 46/33/17 48/34/18 106/35/18 105/36/17
f 71/37/19 69/38/20 96/39/20 97/40/19
f 8/32/16 9/31/16 11/41/21 10/42/21
f 68/43/22 70/44/23 117/45/23 116/46/22
f 63/47/24 61/48/25 92/49/25 93/50/24
f 10/42/21 11/41/21 13/51/26 12/52/26
f 60/53/27 62/1/1 113/4/1 112/54/27
f 55/6/4 53/55/28 88/56/28 89/7/4
f 12/52/26 13/51/26 15/57/29 14/58/29
f 52/59/30 54/13/7 109/16/7 108/60/30
f 77/18/10 75/61/31 99/62/31 100/19/10
f 14/58/29 15/57/29 17/63/32 16/64/32
f 74/65/33 76/23/12 120/26/12 119/66/33
f 47/28/15 44/67/34 84/68/34 85/29/15
f 16/64/32 17/63/32 19/69/35 18/70/35
f 43/71/36 46/33/17 105/36/17 1/72/36
f 69/38/20 67/73/37 95/74/37 96/39/20
f 18/70/35 19/69/35 21/75/38 20/76/38
f 66/77/39 68/43/22 116/46/22 115/78/39
f 61/48/25 59/79/40 91/80/40 92/49/25
f 20/76/38 21/75/38 23/81/41 22/82/41
f 58/83/42 60/53/27 112/54/27 111/84/42
f 45/85/43 81/86/44 102/87/44 82/88/43
f 22/89/41 23/90/41 25/91/45 24/92/45
f 80/93/46 42/94/47 104/95/47 122/96/46
f 53/55/28 51/97/48 87/98/48 88/56/28
f 24/92/45 25/91/45 27/99/49 26/100/49
f 50/101/50 52/59/30 108/60/30 107/102/50
f 75/61/31 73/103/51 98/104/51 99/62/31
f 26/100/49 27/99/49 29/105/52 28/106/52
f 72/107/53 74/65/33 119/66/33 118/108/53
f 44/67/34 45/85/43 82/88/43 84/68/34
f 28/106/52 29/105/52 31/109/54 30/110/54
f 42/94/47 43/71/36 1/72/36 104/95/47
f 67/73/37 65/111/55 94/112/55 95/74/37
f 30/110/54 31/109/54 33/113/56 32/114/56
f 64/2/2 66/77/39 115/78/39 114/3/2
f 59/79/40 57/5/3 90/8/3 91/80/40
f 32/114/56 33/113/56 35/115/57 34/116/57
f 56/14/8 58/83/42 111/84/42 110/15/8
f 81/86/44 79/17/9 101/20/9 102/87/44
f 34/116/57 35/115/57 37/117/58 36/118/58
f 78/24/13 80/93/46 122/96/46 121/25/13
f 51/97/48 49/27/14 86/30/14 87/98/48
f 36/118/58 37/117/58 39/119/59 38/120/59
f 48/34/18 50/101/50 107/102/50 106/35/18
f 73/103/51 71/37/19 97/40/19 98/104/51
f 38/120/59 39/119/59 41/121/60 40/122/60
f 70/44/23 72/107/53 118/108/53 117/45/23
f 65/111/55 63/47/24 93/50/24 94/112/55
f 40/122/60 41/121/60 3/10/5 2/9/5
s 0
f 43/71/61 42/94/61 2/123/61 4/124/61
f 45/85/62 44/67/62 5/125/62 3/126/62
f 46/33/61 43/71/61 4/124/61 6/127/61
f 44/67/62 47/28/62 7/128/62 5/125/62
f 48/34/61 46/33/61 6/127/61 8/129/61
f 47/28/62 49/27/62 9/130/62 7/128/62
f 50/101/61 48/34/61 8/129/61 10/131/61
f 49/27/62 51/97/62 11/132/62 9/130/62
f 52/59/61 50/101/61 10/131/61 12/133/61
f 51/97/62 53/55/62 13/134/62 11/132/62
f 54/13/61 52/59/61 12/133/61 14/135/61
f 53/55/62 55/6/62 15/136/62 13/134/62
f 56/14/61 54/13/61 14/135/61 16/137/61
f 55/6/62 57/5/62 17/138/62 15/136/62
f 58/83/61 56/14/61 16/137/61 18/139/61
f 57/5/62 59/79/62 19/140/62 17/138/62
f 60/53/61 58/83/61 18/139/61 20/141/61
f 59/79/62 61/48/62 21/142/62 19/140/62
f 62/1/61 60/53/61 20/141/61 22/143/61
f 61/48/62 63/47/62 23/144/62 21/142/62
f 64/2/61 62/1/61 22/143/61 24/145/61
f 63/47/62 65/111/62 25/146/62 23/144/62
f 66/77/61 64/2/61 24/145/61 26/147/61
f 65/111/62 67/73/62 27/148/62 25/146/62
f 68/43/61 66/77/61 26/147/61 28/149/61
f 67/73/62 69/38/62 29/150/62 27/148/62
f 70/44/61 68/43/61 28/149/61 30/151/61
f 69/38/62 71/37/62 31/152/62 29/150/62
f 72/107/61 70/44/61 30/151/61 32/153/61
f 71/37/62 73/103/62 33/154/62 31/152/62
f 74/65/61 72/107/61 32/153/61 34/155/61
f 73/103/62 75/61/62 35/156/62 33/154/62
f 76/23/61 74/65/61 34/155/61 36/157/61
f 75/61/62 77/18/62 37/158/62 35/156/62
f 78/24/61 76/23/61 36/157/61 38/159/61
f 77/18/62 79/17/62 39/160/62 37/158/62
f 80/93/61 78/24/61 38/159/61 40/161/61
f 79/17/62 81/86/62 41/162/62 39/160/62
f 42/94/61 80/93/61 40/161/61 2/123/61
f 81/86/62 45/85/62 3/126/62 41/162/62
f 83/163/62 84/68/62 82/88/62
f 83/163/62 85/29/62 84/68/62
f 83/163/62 86/30/62 85/29/62
f 83/163/62 87/98/62 86/30/62
f 83/163/62 88/56/62 87/98/62
f 83/163/62 89/7/62 88/56/62
f 83/163/62 90/8/62 89/7/62
f 83/163/62 91/80/62 90/8/62
f 83/163/62 92/49/62 91/80/62
f 83/163/62 93/50/62 92/49/62
f 83/163/62 94/112/62 93/50/62
f 83/163/62 95/74/62 94/112/62
f 83/163/62 96/39/62 95/74/62
f 83/163/62 97/40/62 96/39/62
f 83/163/62 98/104/62 97/40/62
f 83/163/62 99/62/62 98/104/62
f 83/163/62 100/19/62 99/62/62
f 83/163/62 101/20/62 100/19/62
f 83/163/62 102/87/62 101/20/62
f 83/163/62 82/88/62 102/87/62
f 103/164/61 104/95/61 1/72/61
f 103/164/61 1/72/61 105/36/61
f 103/164/61 105/36/61 106/35/61
f 103/164/61 106/35/61 107/102/61
f 103/164/61 107/102/61 108/60/61
f 103/164/61 108/60/61 109/16/61
f 103/164/61 109/16/61 110/15/61
f 103/164/61 110/15/61 111/84/61
f 103/164/61 111/84/61 112/54/61
f 103/164/61 112/54/61 113/4/61
f 103/164/61 113/4/61 114/3/61
f 103/164/61 114/3/61 115/78/61
f 103/164/61 115/78/61 116/46/61
f 103/164/61 116/46/61 117/45/61
f 103/164/61 117/45/61 118/108/61
f 103/164/61 118/108/61 119/66/61
f 103/164/61 119/66/61 120/26/61
f 103/164/61 120/26/61 121/25/61
f 103/164/61 121/25/61 122/96/61
f 103/164/61 122/96/61 104/95/61
