# Blender 5.2.1 LTS
# www.blender.org
mtllib PAPER.mtl
o Cube
v -0.177279 0.368807 -0.950824
v -0.177279 0.368807 -0.509108
v -0.177279 0.378741 -0.950824
v -0.177279 0.378741 -0.509108
v 0.228193 0.368807 -0.950824
v 0.228193 0.368807 -0.509108
v 0.228193 0.378741 -0.950824
v 0.228193 0.378741 -0.509108
vn -1.0000 -0.0000 -0.0000
vn -0.0000 1.0000 -0.0000
vn 1.0000 -0.0000 -0.0000
vn -0.0000 -1.0000 -0.0000
vn -0.0000 -0.0000 -1.0000
vn -0.0000 -0.0000 1.0000
vt 0.937051 0.842124
vt 0.869538 0.842124
vt 0.869538 0.774611
vt 0.937051 0.774611
vt 0.007711 0.879313
vt 0.007711 0.004586
vt 0.810665 0.004586
vt 0.810665 0.879313
vt 0.967630 0.518143
vt 0.909107 0.518143
vt 0.909107 0.459620
vt 0.967630 0.459620
vt 0.967630 0.577369
vt 0.909107 0.577369
vt 0.909107 0.518845
vt 0.967630 0.518845
vt 0.936042 0.844678
vt 0.936042 0.912191
vt 0.868529 0.912191
vt 0.868529 0.844678
vt 0.967630 0.578071
vt 0.967630 0.636594
vt 0.909107 0.636594
vt 0.909107 0.578071
s 0
usemtl stick
f 1/1/1 2/2/1 4/3/1 3/4/1
f 3/5/2 4/6/2 8/7/2 7/8/2
f 7/9/3 8/10/3 6/11/3 5/12/3
f 5/13/4 6/14/4 2/15/4 1/16/4
f 3/17/5 7/18/5 5/19/5 1/20/5
f 8/21/6 4/22/6 2/23/6 6/24/6
