# Blender 5.2.1 LTS
# www.blender.org
mtllib Pizza Slice.mtl
o Cylinder
v 1.133159 -0.052239 -0.937446
v 1.084721 0.020032 -0.937446
v 1.122142 -0.052239 0.941119
v 1.073704 0.020032 0.941119
v 1.356362 0.052239 -1.016584
v 1.324483 -0.052239 -1.016584
v 1.324483 -0.052239 1.016584
v 1.356362 0.052239 1.016584
v 1.123204 0.131108 0.964979
v 1.134222 0.131108 -0.961307
v 1.313429 0.131108 1.016584
v 1.313429 0.131108 -1.016584
v -1.247760 -0.123128 0.010090
v -1.247760 -0.123128 -0.017174
v -1.247860 -0.073063 -0.017498
v -1.247860 -0.073063 0.010414
v 0.019411 -0.093576 -0.452178
v -0.004858 -0.020774 -0.452340
v 0.013698 -0.093576 0.490229
v -0.010570 -0.020774 0.490391
v 0.566455 -0.013304 -0.728608
v 0.602808 -0.085576 -0.728527
v 0.602808 -0.085576 0.728527
v 0.566455 -0.013304 0.728608
v -0.978457 -0.038574 -0.088896
v -0.978457 -0.038574 0.088896
v -0.982373 0.011491 0.089194
v -0.982373 0.011491 -0.089194
v 1.213197 0.036136 0.991705
v 1.213197 0.036136 -0.991705
v 1.237416 -0.052239 -0.991705
v 1.237416 -0.052239 0.991705
v 1.216480 0.158651 0.991705
v 1.216480 0.158651 -0.991705
v 1.292910 -0.052239 -0.444888
v 1.292910 -0.052239 0.444888
v 1.244472 0.020032 0.444888
v 1.244472 0.020032 -0.444888
v 1.498924 -0.052239 -0.467784
v 1.498924 -0.052239 0.467784
v 1.530803 0.052239 0.467784
v 1.530803 0.052239 -0.467784
v 1.293972 0.131108 0.444888
v 1.293973 0.131108 -0.444888
v 1.487870 0.131108 0.467784
v 1.487870 0.131108 -0.467784
v -1.247760 -0.123128 -0.008086
v -1.247760 -0.123128 0.001002
v -1.247860 -0.073063 0.001110
v -1.247860 -0.073063 -0.008194
v -0.003770 -0.020774 0.184716
v 0.003031 -0.020774 -0.120959
v 0.027300 -0.093576 -0.120904
v 0.020499 -0.093576 0.184662
v 0.566455 -0.013304 0.242869
v 0.566455 -0.013304 -0.242869
v 0.602808 -0.085576 -0.242842
v 0.602808 -0.085576 0.242842
v -0.978457 -0.038574 -0.029632
v -0.978457 -0.038574 0.029632
v -0.982373 0.011491 0.029731
v -0.982373 0.011491 -0.029731
v 1.390921 0.158651 0.456336
v 1.390921 0.158651 -0.456336
v 1.411857 -0.052239 -0.456336
v 1.411856 -0.052239 0.456336
vn -0.8623 0.4154 -0.2898
vn 0.9151 -0.2792 0.2909
vn -0.0000 -1.0000 -0.0000
vn -0.2118 0.0084 -0.9773
vn -0.2118 0.0084 0.9773
vn 0.2579 0.9626 0.0830
vn -0.2046 -0.0403 0.9780
vn 0.8460 0.4605 -0.2689
vn -0.3708 -0.0111 -0.9287
vn -1.0000 -0.0020 -0.0000
vn -0.2542 -0.0162 -0.9670
vn 0.0517 -0.9986 -0.0084
vn -0.2776 -0.0171 0.9605
vn -0.0530 0.9986 -0.0092
vn 0.0329 0.9995 0.0006
vn -0.3718 -0.1569 0.9150
vn -0.0546 -0.9985 0.0011
vn -0.4228 -0.1782 -0.8885
vn -0.3508 -0.2063 -0.9134
vn -0.3620 -0.2129 0.9076
vn -0.0130 0.9999 -0.0001
vn 0.0138 -0.9999 -0.0001
vn 0.2996 -0.9541 -0.0000
vn -0.3035 0.9528 -0.0000
vn -0.3802 -0.0907 0.9205
vn -0.3472 -0.0831 -0.9341
vn -0.2046 -0.0403 -0.9780
vn -0.3105 -0.0269 0.9502
vn -0.2613 0.9615 -0.0855
vn -0.3555 -0.1608 0.9208
vn -0.4050 -0.1832 -0.8958
vn -0.2741 0.9578 0.0871
vn -0.2733 0.9619 -0.0000
vn 0.0136 -0.9999 0.0001
vn 0.0138 -0.9999 0.0001
vn -0.0131 0.9999 0.0001
vn -0.0132 0.9999 -0.0001
vn -0.0549 -0.9985 -0.0010
vn -0.0548 -0.9985 -0.0010
vn 0.0327 0.9995 -0.0007
vn 0.0328 0.9995 0.0006
vn -0.0527 0.9986 0.0086
vn -0.0491 0.9988 -0.0000
vn 0.0520 -0.9986 0.0090
vn 0.0483 -0.9988 -0.0000
vn 0.8460 0.4605 0.2689
vn 0.8783 0.4781 -0.0000
vn 0.2579 0.9626 -0.0830
vn 0.2733 0.9619 -0.0000
vn 0.9151 -0.2792 -0.2909
vn 0.9565 -0.2918 -0.0000
vn -0.8670 0.4159 0.2745
vn -0.9134 0.4071 -0.0000
vt 0.448899 0.858635
vt 0.455738 0.966770
vt 0.426160 0.971918
vt 0.419327 0.858588
vt 0.847614 0.573695
vt 0.820331 0.573695
vt 0.829991 0.450090
vt 0.857274 0.450090
vt 0.124139 0.028634
vt 0.001793 0.021385
vt 0.003657 0.001793
vt 0.128725 0.010109
vt 0.997076 0.029397
vt 0.974458 0.033182
vt 0.972463 0.001793
vt 0.998207 0.009743
vt 0.909371 0.033248
vt 0.886753 0.029463
vt 0.885624 0.009797
vt 0.911372 0.001793
vt 0.824054 0.322345
vt 0.861279 0.439110
vt 0.840655 0.444409
vt 0.803446 0.324721
vt 0.931906 0.009567
vt 0.940123 0.030894
vt 0.820331 0.775110
vt 0.829992 0.887802
vt 0.813107 0.885706
vt 0.803446 0.773014
vt 0.977051 0.063653
vt 0.949649 0.050291
vt 0.943708 0.030860
vt 0.463358 0.564973
vt 0.463375 0.552557
vt 0.465400 0.552557
vt 0.465336 0.564973
vt 0.968127 0.548669
vt 0.985825 0.610223
vt 0.973232 0.609547
vt 0.955471 0.548778
vt 0.103052 0.209754
vt 0.004613 0.171160
vt 0.004520 0.046790
vt 0.117024 0.053609
vt 0.915707 0.548305
vt 0.928364 0.548407
vt 0.910511 0.609731
vt 0.897917 0.610418
vt 0.519260 0.161119
vt 0.421095 0.121799
vt 0.419327 0.001793
vt 0.533404 0.007528
vt 0.437397 0.490291
vt 0.425380 0.485478
vt 0.422587 0.257552
vt 0.484910 0.280924
vt 0.885624 0.178883
vt 0.904392 0.185385
vt 0.909122 0.320860
vt 0.890417 0.316863
vt 0.021093 0.545965
vt 0.009081 0.541256
vt 0.014303 0.311265
vt 0.082072 0.335993
vt 0.998207 0.178943
vt 0.993970 0.318574
vt 0.975264 0.322567
vt 0.979437 0.185430
vt 0.996019 0.054679
vt 0.888037 0.056713
vt 0.907003 0.065713
vt 0.003635 0.603345
vt 0.001793 0.602623
vt 0.421207 0.547465
vt 0.419327 0.546712
vt 0.951927 0.009548
vt 0.934406 0.052344
vt 0.845591 0.319976
vt 0.882038 0.433411
vt 0.384396 0.198296
vt 0.297365 0.124314
vt 0.309120 0.101158
vt 0.403792 0.178993
vt 0.882038 0.014048
vt 0.846697 0.126274
vt 0.825188 0.123658
vt 0.863743 0.007326
vt 0.424967 0.548972
vt 0.423087 0.548218
vt 0.449414 0.495105
vt 0.461431 0.499918
vt 0.007319 0.604789
vt 0.005477 0.604067
vt 0.033104 0.550674
vt 0.045116 0.555383
vt 0.204858 0.387308
vt 0.143465 0.361651
vt 0.201491 0.248348
vt 0.299930 0.286942
vt 0.613567 0.332712
vt 0.547234 0.304296
vt 0.617424 0.200438
vt 0.715588 0.239758
vt 0.713221 0.079553
vt 0.799861 0.151637
vt 0.459401 0.564973
vt 0.459324 0.552557
vt 0.461349 0.552557
vt 0.461379 0.564973
vt 0.803446 0.571600
vt 0.813106 0.447995
vt 0.804609 0.121049
vt 0.843181 0.001793
vt 0.318347 0.084452
vt 0.415741 0.163354
vt 0.857274 0.887802
vt 0.847614 0.775110
vt 0.455738 0.557798
vt 0.449112 0.664930
vt 0.419539 0.664883
vt 0.426172 0.552557
s 0
usemtl Pizza_MAT
f 37/1/1 4/2/1 9/3/1 43/4/1
f 40/5/2 41/6/2 8/7/2 7/8/2
f 65/9/3 31/10/3 6/11/3 39/12/3
f 31/13/4 30/14/4 5/15/4 6/16/4
f 29/17/5 32/18/5 7/19/5 8/20/5
f 63/21/6 33/22/6 11/23/6 45/24/6
f 29/17/7 8/20/7 11/25/7 33/26/7
f 42/27/8 5/28/8 12/29/8 46/30/8
f 30/14/9 2/31/9 10/32/9 34/33/9
f 47/34/10 50/35/10 15/36/10 14/37/10
f 25/38/11 14/39/11 15/40/11 28/41/11
f 57/42/12 22/43/12 1/44/12 35/45/12
f 26/46/13 27/47/13 16/48/13 13/49/13
f 55/50/14 24/51/14 4/52/14 37/53/14
f 61/54/15 27/55/15 20/56/15 51/57/15
f 23/58/16 24/59/16 20/60/16 19/61/16
f 59/62/17 25/63/17 17/64/17 53/65/17
f 22/66/18 17/67/18 18/68/18 21/69/18
f 1/70/19 22/66/19 21/69/19 2/31/19
f 3/71/20 4/72/20 24/59/20 23/58/20
f 51/57/21 20/56/21 24/51/21 55/50/21
f 53/65/22 17/64/22 22/43/22 57/42/22
f 47/73/23 14/74/23 25/63/23 59/62/23
f 49/75/24 16/76/24 27/55/24 61/54/24
f 19/61/25 20/60/25 27/47/25 26/46/25
f 17/67/26 25/38/26 28/41/26 18/68/26
f 5/15/27 30/14/27 34/33/27 12/77/27
f 4/72/28 29/17/28 33/26/28 9/78/28
f 43/79/29 9/80/29 33/22/29 63/21/29
f 4/72/30 3/71/30 32/18/30 29/17/30
f 1/70/31 2/31/31 30/14/31 31/13/31
f 35/45/3 1/44/3 31/10/3 65/9/3
f 3/81/3 36/82/3 66/83/3 32/84/3
f 36/82/3 35/45/3 65/9/3 66/83/3
f 10/85/32 44/86/32 64/87/32 34/88/32
f 44/86/33 43/79/33 63/21/33 64/87/33
f 15/89/24 50/90/24 62/91/24 28/92/24
f 50/90/24 49/75/24 61/54/24 62/91/24
f 13/93/23 48/94/23 60/95/23 26/96/23
f 48/94/23 47/73/23 59/62/23 60/95/23
f 19/97/34 54/98/34 58/99/34 23/100/34
f 54/98/35 53/65/35 57/42/35 58/99/35
f 18/101/36 52/102/36 56/103/36 21/104/36
f 52/102/37 51/57/37 55/50/37 56/103/37
f 26/96/38 60/95/38 54/98/38 19/97/38
f 60/95/39 59/62/39 53/65/39 54/98/39
f 28/92/40 62/91/40 52/102/40 18/101/40
f 62/91/41 61/54/41 51/57/41 52/102/41
f 21/104/42 56/103/42 38/105/42 2/106/42
f 56/103/43 55/50/43 37/53/43 38/105/43
f 23/100/44 58/99/44 36/82/44 3/81/44
f 58/99/45 57/42/45 35/45/45 36/82/45
f 13/107/10 16/108/10 49/109/10 48/110/10
f 48/110/10 49/109/10 50/35/10 47/34/10
f 8/7/46 41/6/46 45/111/46 11/112/46
f 41/6/47 42/27/47 46/30/47 45/111/47
f 34/88/48 64/87/48 46/113/48 12/114/48
f 64/87/49 63/21/49 45/24/49 46/113/49
f 32/84/3 66/83/3 40/115/3 7/116/3
f 66/83/3 65/9/3 39/12/3 40/115/3
f 6/117/50 5/28/50 42/27/50 39/118/50
f 39/118/51 42/27/51 41/6/51 40/5/51
f 2/119/52 38/120/52 44/121/52 10/122/52
f 38/120/53 37/1/53 43/4/53 44/121/53
